<?xml version="1.0" standalone="no"?>
<!DOCTYPE svg PUBLIC "-//W3C//DTD SVG 20010904//EN"
 "http://www.w3.org/TR/2001/REC-SVG-20010904/DTD/svg10.dtd">
<svg version="1.0" xmlns="http://www.w3.org/2000/svg"
 width="1500.000000pt" height="1500.000000pt" viewBox="0 0 1500.000000 1500.000000"
 preserveAspectRatio="xMidYMid meet">

<rect width="100%" height="100%" fill="white"/>

<g transform="translate(0.000000,1500.000000) scale(0.100000,-0.100000)"
fill="#000000" stroke="none">
<path d="M0 7500 l0 -7500 7500 0 7500 0 0 7500 0 7500 -7500 0 -7500 0 0
-7500z m7900 4725 c23 -8 75 -15 114 -15 43 -1 81 -6 96 -15 14 -8 44 -14 68
-15 23 0 59 -7 79 -15 19 -8 50 -15 67 -15 17 -1 42 -7 56 -15 14 -8 39 -15
55 -15 17 0 41 -7 55 -15 14 -8 40 -14 58 -15 17 0 32 -4 32 -10 0 -5 18 -13
40 -16 22 -4 43 -11 46 -15 3 -5 14 -9 24 -9 11 0 36 -7 57 -16 21 -9 53 -23
71 -30 77 -33 104 -44 135 -58 17 -8 39 -17 47 -20 8 -3 22 -10 30 -15 8 -5
33 -17 55 -27 22 -9 42 -20 45 -23 7 -9 70 -41 80 -41 4 0 39 -20 77 -45 37
-25 71 -45 75 -45 8 0 100 -60 108 -70 3 -4 20 -15 39 -26 19 -10 48 -31 65
-46 17 -16 34 -28 38 -28 8 0 35 -22 86 -67 14 -13 28 -23 32 -23 4 0 18 -10
32 -22 13 -13 76 -68 139 -124 98 -87 181 -172 325 -334 49 -54 127 -157 191
-250 32 -47 64 -91 70 -98 7 -7 13 -19 13 -27 0 -7 4 -15 8 -17 11 -4 120
-187 162 -273 19 -38 38 -71 43 -73 4 -2 7 -9 7 -15 0 -10 43 -107 75 -170 8
-16 15 -37 15 -47 0 -9 7 -23 15 -30 8 -7 15 -22 15 -34 0 -12 7 -31 15 -42 8
-10 15 -26 15 -35 0 -9 7 -30 15 -45 8 -16 15 -39 15 -51 0 -12 5 -25 10 -28
6 -3 10 -16 10 -28 0 -12 7 -35 15 -51 8 -15 15 -37 15 -48 0 -11 6 -34 14
-51 14 -35 32 -111 45 -197 5 -30 14 -68 20 -83 6 -16 11 -46 11 -69 0 -22 6
-66 14 -97 16 -63 30 -294 29 -481 0 -167 -18 -436 -32 -480 -6 -19 -11 -58
-11 -87 0 -28 -4 -54 -9 -58 -6 -3 -12 -27 -16 -53 -3 -26 -10 -62 -16 -79 -6
-18 -14 -54 -19 -80 -4 -27 -13 -61 -18 -78 -6 -16 -18 -57 -28 -90 -9 -33
-20 -68 -25 -77 -5 -10 -9 -26 -9 -35 0 -10 -7 -31 -15 -47 -8 -15 -15 -36
-15 -45 0 -10 -7 -26 -15 -37 -8 -10 -15 -27 -15 -36 0 -9 -6 -29 -14 -45 -8
-15 -21 -44 -29 -63 -26 -61 -68 -154 -77 -170 -5 -8 -27 -52 -50 -97 -22 -45
-45 -85 -50 -88 -6 -3 -10 -15 -10 -25 0 -10 -4 -20 -8 -22 -5 -1 -33 -43 -63
-92 -84 -137 -155 -243 -175 -261 -6 -5 -29 -35 -52 -65 -22 -30 -53 -69 -69
-85 -15 -17 -44 -51 -62 -75 -50 -65 -274 -286 -356 -352 -38 -31 -83 -68
-100 -82 -16 -14 -35 -30 -42 -36 -7 -5 -16 -10 -20 -10 -4 0 -21 -14 -37 -30
-16 -17 -33 -30 -38 -30 -6 0 -97 -62 -143 -98 -14 -11 -107 -67 -125 -75 -8
-4 -28 -16 -45 -26 -16 -11 -61 -36 -100 -56 -38 -20 -77 -40 -85 -45 -30 -19
-212 -100 -223 -100 -7 0 -21 -7 -31 -15 -11 -8 -28 -15 -37 -15 -10 0 -30 -6
-46 -14 -56 -29 -101 -46 -121 -46 -12 0 -24 -4 -27 -10 -3 -5 -18 -10 -33
-10 -15 -1 -38 -7 -52 -15 -14 -8 -34 -14 -45 -15 -11 0 -33 -7 -49 -15 -15
-8 -45 -15 -65 -15 -21 0 -46 -7 -57 -15 -10 -8 -38 -15 -60 -15 -23 0 -58 -7
-77 -15 -20 -8 -59 -15 -86 -15 -27 0 -62 -5 -78 -11 -110 -42 -886 -42 -996
0 -16 6 -50 11 -76 11 -27 0 -65 7 -84 15 -20 8 -56 15 -79 15 -24 0 -52 7
-62 15 -11 8 -36 15 -57 15 -20 0 -50 7 -65 15 -16 8 -40 15 -54 15 -14 1 -36
7 -50 15 -14 8 -37 14 -52 15 -15 0 -30 5 -33 10 -3 6 -14 10 -23 10 -9 0 -30
7 -46 15 -15 8 -36 15 -45 15 -10 0 -26 7 -37 15 -10 8 -27 15 -36 15 -9 0
-29 7 -45 15 -72 37 -161 75 -175 75 -9 0 -21 7 -28 15 -7 8 -21 15 -31 15
-11 0 -19 4 -19 9 0 5 -12 14 -27 20 -16 5 -50 24 -78 40 -27 17 -56 33 -62
36 -43 17 -62 28 -110 63 -17 12 -35 22 -41 22 -5 0 -15 7 -23 16 -7 8 -29 24
-48 35 -54 29 -209 145 -353 264 -93 77 -292 275 -363 363 -33 40 -77 94 -98
120 -21 26 -48 59 -60 73 -31 38 -47 61 -53 82 -4 9 -10 17 -14 17 -7 0 -42
50 -90 130 -9 14 -27 43 -41 65 -14 22 -28 48 -32 58 -3 9 -11 17 -17 17 -5 0
-10 8 -10 19 0 10 -7 24 -15 31 -8 7 -15 21 -15 31 0 10 -4 20 -9 24 -5 3 -37
63 -71 133 -33 70 -67 140 -75 155 -8 16 -15 35 -15 42 0 7 -6 26 -14 42 -27
51 -46 101 -46 116 0 9 -4 18 -9 21 -5 4 -12 24 -16 46 -4 22 -11 42 -16 46
-5 3 -9 17 -9 32 -1 15 -7 38 -15 52 -8 14 -15 39 -15 55 0 17 -7 39 -15 49
-8 11 -15 35 -15 53 0 19 -7 50 -15 70 -8 19 -15 50 -15 68 0 18 -7 52 -15 75
-8 23 -15 62 -15 86 0 23 -5 55 -11 71 -13 35 -33 319 -33 478 0 156 20 440
33 485 6 19 11 54 11 78 0 23 7 59 15 79 8 19 15 51 15 70 0 18 7 50 15 70 8
19 15 52 15 72 0 20 7 45 15 55 8 11 15 34 15 50 1 17 7 42 15 56 8 14 14 37
15 52 0 15 4 29 9 32 5 4 12 24 16 46 4 22 11 42 16 46 5 3 9 15 9 27 0 12 7
31 15 41 8 11 15 30 15 42 0 12 7 27 15 34 8 7 15 20 15 29 0 9 8 33 19 54 10
20 26 54 35 74 9 21 20 45 25 53 6 8 26 49 45 90 20 41 49 98 66 125 16 28 34
59 39 70 24 51 218 337 258 380 10 11 41 49 68 85 28 36 133 148 235 250 167
168 223 217 408 358 73 56 215 153 250 171 15 8 53 31 85 53 32 21 62 38 66
38 4 0 28 11 52 25 44 24 57 30 179 87 36 16 78 36 93 44 16 8 37 14 47 14 9
0 23 7 30 15 7 8 20 15 30 15 10 0 31 7 46 15 16 8 37 15 46 15 9 0 20 5 23
10 3 6 18 10 33 10 15 1 38 7 52 15 14 8 36 14 50 15 14 0 34 6 45 14 11 7 38
16 60 18 22 3 54 10 70 16 46 16 125 34 180 41 28 4 60 12 72 19 12 7 52 12
90 12 37 0 88 7 113 14 68 22 740 22 800 1z m-4142 -7955 c1 -80 4 -151 7
-158 4 -10 16 -5 44 17 36 29 44 31 122 31 115 0 145 -20 182 -121 15 -39 17
-79 15 -275 l-3 -229 -80 0 -80 0 -3 226 c-2 215 -3 227 -23 245 -31 28 -122
24 -154 -6 -24 -23 -25 -25 -27 -244 l-3 -221 -54 -3 c-30 -2 -65 -1 -78 3
l-23 5 0 434 c0 338 3 435 13 440 6 2 41 4 77 3 l65 -2 3 -145z m1290 0 c1
-79 7 -149 12 -154 7 -7 10 -6 10 2 0 7 6 12 14 12 7 0 19 7 26 15 9 11 34 15
99 15 127 -1 158 -26 225 -182 21 -47 22 -216 2 -261 -7 -18 -21 -51 -31 -74
-10 -23 -33 -56 -51 -73 -63 -56 -204 -64 -264 -13 l-30 25 -10 -26 c-9 -24
-15 -26 -64 -26 -94 0 -86 -44 -86 444 0 238 3 436 7 440 4 4 37 6 73 4 l65
-3 3 -145z m3787 -295 l0 -440 -80 0 -80 0 -3 430 c-1 237 0 436 3 443 3 9 26
12 82 10 l78 -3 0 -440z m2515 293 c3 -80 8 -149 12 -153 4 -4 19 5 35 19 26
24 35 26 119 26 l92 0 41 -40 c22 -22 43 -52 46 -67 4 -16 10 -35 15 -44 13
-24 16 -457 3 -470 -5 -5 -43 -9 -84 -7 l-74 3 -2 215 c-2 136 -7 223 -14 237
-26 49 -125 54 -168 9 -19 -21 -21 -34 -23 -241 l-3 -220 -80 0 -80 0 -3 430
c-1 237 0 436 3 443 3 9 26 12 82 10 l78 -3 5 -147z m-8335 123 c25 -15 30
-24 33 -63 4 -59 -23 -88 -82 -88 -56 0 -86 30 -86 86 0 37 4 45 33 62 40 25
63 26 102 3z m7371 1 c12 -9 29 -29 39 -44 16 -26 16 -29 -4 -62 -24 -38 -38
-46 -86 -46 -45 0 -95 42 -95 80 0 21 10 37 37 59 42 35 78 39 109 13z m-1828
-29 c2 -12 -4 -39 -13 -60 -9 -21 -23 -53 -31 -71 -8 -18 -14 -41 -14 -50 0
-10 -6 -26 -14 -37 -7 -11 -16 -31 -19 -45 -3 -14 -15 -50 -27 -80 -12 -30
-25 -67 -27 -83 -3 -15 -9 -30 -14 -33 -5 -3 -9 -13 -9 -22 0 -9 -7 -30 -15
-46 -8 -15 -15 -35 -15 -43 0 -8 -6 -27 -14 -41 -15 -30 -33 -81 -46 -127 -10
-37 -28 -88 -49 -137 l-16 -37 -62 -1 c-58 0 -78 10 -53 25 6 3 10 17 10 30 0
13 6 36 14 52 8 15 22 55 32 88 10 33 22 64 26 69 4 6 8 17 8 25 0 9 6 28 14
43 8 15 17 40 21 57 4 17 11 33 16 36 5 4 9 16 9 28 0 13 6 31 14 42 7 11 16
31 19 45 5 24 22 75 38 115 13 32 60 167 71 204 20 69 35 82 92 79 44 -3 51
-6 54 -25z m-5168 -123 l5 -75 53 -3 52 -3 0 -59 0 -59 -47 -7 c-27 -4 -51
-12 -55 -18 -4 -6 -8 -84 -8 -172 0 -161 0 -162 25 -178 13 -9 38 -16 55 -16
l31 0 -3 -57 c-3 -56 -3 -57 -38 -65 -56 -13 -148 1 -177 26 -46 40 -56 85
-62 291 l-6 190 -37 3 -38 3 0 59 0 59 38 3 37 3 3 65 c3 82 14 92 102 88 l65
-3 5 -75z m-844 -105 c33 -31 42 -31 46 -2 3 20 8 22 73 22 l70 0 0 -355 c0
-353 0 -355 -23 -392 -28 -45 -104 -108 -129 -108 -11 0 -24 -5 -30 -11 -14
-14 -193 -13 -207 1 -6 6 -19 10 -30 10 -25 0 -96 65 -96 86 0 19 60 84 77 84
7 0 13 -3 13 -7 0 -22 65 -43 133 -43 88 1 110 16 125 84 11 55 -4 72 -38 41
-24 -22 -161 -26 -200 -6 -33 18 -110 92 -110 107 0 7 -6 25 -14 41 -22 43
-38 167 -26 198 6 15 10 40 10 56 0 38 40 126 72 159 47 49 77 59 170 60 79 0
89 -2 114 -25z m499 -290 l0 -310 -80 0 -80 0 -3 300 c-1 165 0 306 3 313 3 9
26 12 82 10 l78 -3 0 -310z m1352 307 c8 -5 13 -74 15 -234 l3 -226 25 -21
c14 -11 37 -20 51 -21 32 0 90 28 104 49 6 9 12 115 15 236 l5 220 73 3 72 3
-2 -313 -3 -313 -62 -3 c-59 -3 -64 -1 -75 22 l-11 26 -35 -27 c-31 -24 -44
-26 -121 -27 -80 0 -89 2 -124 29 -76 57 -81 83 -78 423 l1 182 68 0 c37 0 72
-4 79 -8z m1866 -9 c36 -21 97 -83 97 -99 0 -6 7 -17 16 -24 10 -9 14 -26 12
-49 l-3 -36 -69 0 -68 0 -22 40 c-27 48 -69 62 -130 45 -59 -17 -76 -58 -76
-182 0 -108 13 -143 63 -171 54 -32 114 -13 157 50 21 31 26 33 81 33 55 0 59
-2 65 -27 10 -37 -30 -107 -88 -153 -37 -30 -58 -39 -107 -44 -78 -9 -158 2
-198 26 -54 32 -107 101 -126 162 -19 62 -24 211 -7 221 6 3 10 19 10 35 0 16
7 35 15 44 8 8 15 19 15 25 0 19 72 91 90 91 10 0 20 7 24 15 9 23 207 21 249
-2z m635 -15 c85 -56 129 -142 139 -272 5 -63 -5 -111 -40 -186 -23 -49 -76
-110 -97 -110 -7 0 -22 -7 -32 -17 -28 -25 -211 -24 -259 3 -49 27 -109 85
-109 105 0 10 -5 19 -11 21 -28 9 -43 200 -22 283 6 22 18 55 28 73 20 38 83
102 100 102 7 0 18 7 25 15 10 12 37 15 120 15 105 0 109 -1 158 -32z m397 6
l16 -25 34 25 c30 23 43 26 122 26 83 0 90 -2 119 -28 17 -16 34 -35 37 -43 3
-9 8 -10 14 -4 4 6 27 25 49 43 40 31 45 32 136 32 l94 0 35 -37 c69 -75 69
-76 69 -335 0 -169 -3 -237 -12 -246 -12 -12 -114 -17 -142 -6 -14 5 -16 33
-16 209 0 255 -1 262 -51 276 -48 15 -108 -5 -126 -41 -9 -18 -13 -86 -13
-226 0 -161 -3 -204 -14 -213 -9 -7 -40 -11 -78 -9 l-63 3 -3 221 -2 221 -26
24 c-36 33 -113 33 -149 -1 -25 -23 -25 -23 -27 -244 l-3 -221 -80 0 -80 0 -3
300 c-1 165 0 305 3 312 3 9 27 13 74 13 63 0 70 -2 86 -26z m1835 -211 l5
-231 27 -21 c41 -32 89 -28 132 13 l36 33 0 222 0 222 83 -3 82 -3 0 -310 0
-310 -72 -3 c-60 -2 -75 0 -91 16 -19 19 -20 19 -53 -2 -28 -17 -49 -21 -115
-20 -104 0 -142 22 -179 99 -25 53 -25 57 -25 295 l0 241 83 -3 82 -3 5 -232z
m628 210 c2 -13 5 -23 6 -23 9 0 67 33 71 41 4 5 48 9 98 9 90 0 93 -1 127
-33 69 -65 70 -71 70 -342 0 -273 6 -255 -80 -255 -85 0 -80 -13 -81 214 0
235 -7 265 -59 279 -41 10 -108 -6 -127 -32 -9 -12 -12 -75 -13 -233 l0 -218
-23 -5 c-13 -4 -48 -5 -78 -3 l-54 3 -3 300 c-1 165 0 306 3 313 3 9 24 12 72
10 62 -3 68 -5 71 -25z m653 -20 c0 -27 2 -122 3 -213 2 -91 0 -210 -3 -265
l-6 -100 -49 -3 c-27 -2 -60 -1 -73 3 l-23 5 0 304 c0 166 3 306 7 309 3 4 37
7 75 7 l68 0 1 -47z m287 20 c4 -29 8 -29 48 2 29 22 42 25 117 25 63 0 88 -4
97 -15 7 -8 16 -15 21 -15 12 0 59 -46 59 -57 0 -6 7 -16 15 -23 8 -7 15 -23
15 -37 0 -13 7 -35 16 -48 13 -20 15 -46 12 -135 -2 -69 -8 -114 -16 -122 -6
-6 -12 -22 -12 -34 0 -12 -7 -27 -15 -34 -8 -7 -15 -18 -15 -24 0 -13 -33 -45
-74 -71 -41 -27 -186 -27 -215 -1 -11 10 -27 16 -36 13 -12 -5 -15 -29 -15
-142 l0 -136 -72 3 -73 3 -3 425 c-1 234 0 431 3 438 3 9 24 12 72 10 62 -3
68 -5 71 -25z m1254 -17 c5 -22 12 -44 17 -50 5 -6 11 -24 14 -41 2 -16 10
-46 17 -65 29 -84 33 -97 37 -125 9 -58 14 -62 33 -25 10 19 22 54 26 78 3 23
10 45 15 48 5 3 9 17 9 32 0 15 6 38 13 52 8 15 17 43 20 64 10 63 29 76 112
76 39 0 74 -3 77 -6 4 -3 0 -17 -8 -32 -8 -15 -14 -34 -14 -43 0 -9 -7 -30
-15 -45 -8 -16 -15 -39 -15 -51 0 -12 -4 -25 -10 -28 -5 -3 -10 -14 -10 -23 0
-9 -7 -30 -15 -46 -8 -15 -15 -38 -15 -50 0 -12 -7 -31 -15 -42 -8 -10 -15
-31 -15 -45 0 -15 -7 -32 -15 -39 -8 -7 -15 -27 -15 -44 0 -17 -7 -40 -15 -50
-8 -11 -15 -29 -15 -41 0 -12 -4 -25 -9 -31 -9 -10 -41 -105 -42 -126 -1 -28
-66 -101 -109 -123 -36 -19 -55 -22 -98 -18 l-53 6 3 66 3 66 40 3 c33 3 45 9
68 42 31 43 36 102 12 134 -8 11 -15 27 -15 37 0 9 -7 30 -15 45 -8 16 -15 36
-15 45 0 8 -4 19 -9 25 -5 5 -16 36 -25 69 -10 33 -24 73 -32 88 -8 16 -14 39
-14 52 0 12 -7 28 -15 35 -8 7 -15 27 -15 44 0 17 -7 40 -15 50 -16 21 -20 58
-8 70 4 4 41 5 82 4 l75 -3 8 -39z m839 12 c24 -17 51 -41 60 -52 23 -27 43
-91 35 -105 -4 -6 -38 -11 -81 -11 -73 0 -75 1 -81 27 -16 63 -108 87 -153 39
-25 -27 -26 -74 -1 -86 8 -4 29 -15 47 -24 17 -9 45 -16 62 -16 17 0 39 -4 49
-10 9 -5 35 -17 57 -26 72 -32 105 -79 105 -155 0 -62 -28 -109 -88 -150 -46
-31 -50 -32 -164 -33 -97 0 -120 3 -136 17 -10 9 -23 17 -28 17 -14 1 -58 42
-77 72 -9 15 -17 43 -17 63 l0 35 69 0 69 0 19 -37 c23 -44 67 -59 138 -48 37
5 46 11 51 32 15 60 -24 93 -133 112 -23 4 -48 12 -55 18 -7 6 -25 13 -39 16
-39 10 -85 62 -99 113 -11 37 -10 53 1 87 12 40 67 107 87 107 5 0 15 7 22 15
10 12 37 15 125 15 110 0 113 -1 156 -32z m-7083 -447 c31 -27 32 -105 0 -132
-26 -23 -95 -25 -126 -3 -18 12 -22 25 -22 68 0 44 4 56 23 69 31 22 97 21
125 -2z"/>
<path d="M7200 11858 c-36 -4 -103 -12 -150 -16 -47 -5 -95 -13 -107 -20 -12
-7 -43 -12 -70 -12 -26 -1 -59 -7 -73 -15 -14 -8 -41 -15 -60 -15 -19 0 -46
-7 -60 -15 -14 -8 -37 -14 -51 -15 -15 0 -40 -7 -55 -15 -16 -8 -36 -15 -45
-15 -9 0 -30 -7 -45 -15 -16 -8 -38 -15 -49 -15 -12 0 -25 -4 -30 -9 -6 -4
-35 -17 -65 -27 -30 -10 -62 -24 -71 -31 -8 -7 -24 -13 -33 -13 -16 0 -49 -14
-96 -41 -8 -5 -22 -12 -30 -15 -8 -3 -22 -10 -30 -15 -8 -5 -22 -12 -30 -15
-8 -3 -23 -10 -33 -15 -109 -58 -134 -73 -146 -82 -14 -12 -24 -18 -93 -56
-24 -12 -47 -29 -51 -37 -4 -8 -13 -14 -19 -14 -13 0 -115 -73 -171 -122 -23
-20 -59 -47 -79 -60 -40 -25 -448 -430 -448 -445 0 -5 -25 -38 -55 -73 -30
-36 -55 -70 -55 -76 0 -6 -7 -18 -16 -25 -18 -15 -100 -137 -120 -179 -4 -8
-24 -42 -44 -75 -20 -33 -47 -82 -61 -110 -13 -27 -26 -52 -29 -55 -5 -5 -31
-59 -56 -117 -30 -70 -48 -109 -61 -135 -7 -14 -13 -35 -13 -46 0 -12 -4 -24
-10 -27 -5 -3 -10 -13 -10 -22 0 -8 -6 -29 -13 -46 -24 -55 -39 -101 -47 -140
-4 -21 -13 -44 -19 -50 -6 -6 -11 -26 -11 -45 0 -18 -5 -43 -12 -55 -7 -12
-15 -44 -20 -72 -13 -87 -29 -179 -38 -215 -29 -120 -49 -561 -30 -685 6 -44
15 -123 20 -175 14 -147 28 -237 39 -259 6 -11 11 -37 11 -58 1 -21 7 -49 15
-63 8 -14 15 -41 15 -60 0 -19 7 -44 15 -54 8 -11 15 -31 15 -44 0 -13 5 -33
12 -45 6 -12 15 -35 19 -52 8 -31 51 -152 70 -195 6 -14 18 -41 26 -60 58
-135 84 -189 94 -196 5 -3 9 -12 9 -19 0 -12 51 -105 90 -165 6 -8 15 -27 21
-42 6 -16 14 -28 19 -28 4 0 10 -8 14 -17 8 -25 26 -53 64 -97 6 -8 12 -18 12
-21 0 -10 132 -178 199 -255 87 -98 253 -265 316 -317 28 -22 62 -52 77 -66
15 -14 55 -47 90 -73 35 -27 65 -52 66 -56 2 -4 10 -8 17 -8 8 0 20 -6 27 -14
15 -15 147 -106 153 -106 2 0 38 -20 78 -45 41 -25 80 -45 86 -45 6 0 11 -4
11 -10 0 -5 8 -10 19 -10 10 0 24 -7 31 -15 7 -8 20 -15 30 -15 10 0 23 -7 30
-15 7 -8 20 -15 30 -15 10 0 23 -7 30 -15 7 -8 21 -15 31 -15 10 0 20 -4 24
-9 3 -5 20 -13 37 -17 18 -3 39 -10 48 -15 34 -19 110 -49 122 -49 8 0 20 -6
26 -12 9 -9 43 -13 99 -13 l85 0 34 39 34 40 -2 310 c-3 271 -5 310 -18 307
-39 -11 -217 -25 -325 -25 -133 0 -279 15 -312 33 -12 6 -29 11 -39 11 -15 0
-112 45 -184 85 -42 24 -140 116 -180 169 -46 61 -110 182 -110 207 0 11 -4
19 -10 19 -5 0 -13 12 -16 26 -19 77 -115 227 -197 308 -64 64 -139 126 -152
126 -15 0 -71 65 -78 89 -8 31 8 61 33 61 10 0 22 5 25 10 3 6 35 10 70 10 35
0 67 -4 70 -10 3 -5 18 -10 32 -10 34 0 144 -53 209 -101 28 -20 69 -59 91
-86 44 -53 153 -210 153 -221 1 -15 98 -123 145 -160 126 -100 230 -134 405
-135 118 -1 219 12 245 29 11 8 29 14 40 14 12 0 30 7 41 15 10 8 28 15 39 15
27 0 55 48 55 97 0 21 7 47 15 57 8 11 15 27 15 36 0 9 11 37 25 61 14 24 28
51 31 59 4 8 24 36 45 61 34 41 37 49 23 60 -8 7 -54 15 -102 19 -48 3 -97 12
-109 18 -12 7 -41 12 -65 12 -24 0 -52 6 -63 14 -11 7 -36 16 -55 18 -19 3
-51 11 -70 18 -19 7 -53 19 -75 27 -48 18 -82 32 -155 66 -30 13 -62 28 -70
31 -63 28 -245 159 -311 225 -44 45 -159 192 -159 204 0 3 -13 26 -30 50 -16
25 -30 52 -30 60 0 8 -7 20 -15 27 -8 7 -15 23 -15 35 0 12 -7 28 -15 35 -8 7
-15 25 -15 40 0 15 -7 33 -15 40 -8 7 -15 27 -15 45 0 17 -3 35 -7 39 -9 9
-30 106 -43 196 -5 36 -14 81 -20 100 -17 57 -13 469 5 520 8 23 15 53 15 67
0 26 25 117 41 145 5 10 9 29 9 42 0 14 7 31 15 40 8 8 15 23 15 34 0 11 7 25
15 32 8 7 15 19 15 27 0 8 14 35 30 60 17 24 30 46 30 49 0 8 119 162 130 169
14 9 12 99 -2 113 -7 7 -16 43 -20 80 -4 37 -13 100 -20 140 -9 58 -9 88 1
150 7 42 16 105 20 139 3 34 12 68 19 75 6 6 12 31 12 55 0 24 4 43 10 43 5 0
12 12 16 28 13 59 37 92 69 93 80 4 183 -5 207 -17 15 -8 38 -14 51 -14 13 0
32 -7 43 -15 10 -8 25 -15 33 -15 12 0 228 -104 276 -133 66 -40 224 -149 235
-162 15 -18 41 -20 58 -3 6 6 30 15 54 19 24 5 79 16 123 24 44 9 121 21 170
26 50 5 103 14 119 19 16 6 142 10 281 10 139 0 265 -4 281 -10 16 -5 70 -14
119 -19 85 -9 175 -26 350 -66 25 -5 37 -1 70 27 99 83 280 189 430 252 17 7
47 21 68 30 21 9 45 16 55 16 9 0 28 6 42 13 29 16 193 28 229 18 17 -4 28
-17 33 -38 5 -18 13 -35 18 -38 6 -3 10 -19 10 -34 0 -15 7 -36 15 -47 8 -10
15 -39 15 -64 0 -25 7 -56 15 -70 11 -19 14 -69 14 -220 0 -151 -3 -201 -14
-220 -8 -14 -15 -43 -15 -65 0 -22 -7 -48 -15 -58 -18 -25 -10 -43 43 -97 37
-38 75 -91 150 -206 6 -10 15 -26 18 -34 3 -8 10 -22 15 -30 5 -8 12 -22 15
-30 3 -8 12 -27 20 -42 8 -14 14 -37 14 -50 0 -13 5 -29 12 -36 12 -12 23 -65
38 -174 5 -37 13 -76 19 -87 14 -25 15 -325 1 -400 -9 -52 -17 -106 -39 -255
-5 -32 -14 -63 -20 -69 -6 -6 -11 -25 -11 -42 0 -17 -7 -40 -15 -51 -8 -10
-15 -29 -15 -41 0 -12 -7 -34 -15 -50 -8 -15 -28 -57 -45 -93 -51 -105 -55
-111 -126 -209 -58 -80 -245 -261 -270 -261 -4 0 -15 -7 -24 -15 -19 -18 -82
-53 -170 -95 -36 -17 -77 -38 -92 -46 -14 -8 -35 -14 -45 -14 -11 0 -28 -7
-39 -15 -10 -8 -29 -15 -40 -15 -12 0 -35 -7 -50 -15 -16 -8 -43 -15 -60 -15
-17 0 -37 -7 -44 -15 -8 -9 -30 -15 -59 -15 -25 0 -64 -7 -86 -15 -22 -8 -63
-14 -91 -15 -71 0 -112 -10 -118 -27 -3 -8 12 -37 35 -66 23 -28 45 -61 50
-72 5 -11 13 -27 18 -35 21 -36 41 -93 41 -116 0 -13 7 -41 15 -61 13 -30 15
-118 15 -578 0 -504 1 -546 18 -584 32 -70 62 -86 164 -86 56 0 91 4 100 13 6
6 19 12 27 12 9 0 27 6 41 13 14 7 54 24 90 37 36 12 69 27 74 32 6 4 18 8 27
8 9 0 22 7 29 15 7 8 20 15 30 15 10 0 23 7 30 15 7 8 20 15 30 15 10 0 23 7
30 15 7 8 21 15 31 15 11 0 19 4 19 8 0 4 12 13 28 19 15 7 50 25 77 42 28 17
57 34 65 38 20 10 194 126 200 133 3 4 41 34 85 68 44 33 105 84 135 112 30
28 69 60 85 72 26 19 157 156 228 239 12 15 38 44 57 65 43 48 160 200 160
209 0 3 11 18 25 33 14 15 25 30 25 34 0 5 14 27 30 50 17 22 30 47 30 54 0 7
4 14 9 16 17 6 191 345 191 371 0 8 7 20 15 27 8 7 15 21 15 30 0 10 6 31 14
47 23 45 33 74 56 148 12 39 26 78 31 87 5 10 9 28 9 40 0 13 7 36 15 52 8 15
15 39 15 52 0 14 7 41 15 61 8 19 15 48 15 63 0 15 7 47 15 70 8 23 15 62 15
87 0 24 5 54 11 65 42 78 42 833 0 941 -6 16 -11 47 -11 70 -1 23 -7 60 -15
82 -8 22 -15 56 -15 75 0 19 -7 46 -15 60 -8 14 -15 41 -15 60 0 19 -7 44 -15
54 -8 11 -15 29 -15 40 -1 23 -33 122 -44 133 -3 3 -6 13 -6 22 0 9 -7 29 -15
45 -8 15 -15 35 -15 43 0 8 -6 27 -13 41 -13 26 -31 65 -61 135 -32 73 -51
112 -58 115 -5 2 -8 12 -8 22 0 9 -7 23 -15 30 -8 7 -15 18 -15 26 0 7 -13 32
-29 56 -16 24 -39 62 -51 86 -12 23 -26 42 -31 42 -5 0 -9 8 -9 18 0 9 -10 28
-23 42 -12 14 -48 63 -79 110 -31 47 -68 96 -81 109 -14 12 -37 42 -52 64 -14
23 -103 119 -198 213 -155 154 -217 209 -335 296 -20 15 -42 32 -49 38 -18 15
-228 156 -244 164 -8 3 -36 20 -64 36 -27 16 -86 48 -130 70 -44 22 -87 44
-95 49 -8 5 -32 16 -53 25 -20 9 -52 22 -70 30 -17 8 -48 20 -67 26 -19 7 -48
18 -65 25 -58 23 -100 37 -140 46 -22 6 -44 14 -50 20 -5 5 -20 9 -35 9 -14 0
-38 7 -54 15 -15 8 -41 15 -56 15 -15 0 -44 7 -63 15 -20 8 -58 15 -85 15 -26
0 -53 5 -60 12 -7 7 -54 16 -105 20 -50 4 -119 11 -152 17 -73 11 -515 11
-605 -1z"/>
<path d="M5123 4019 c-61 -18 -73 -47 -73 -181 0 -129 5 -143 65 -174 44 -23
78 -17 121 20 l39 34 0 126 c0 121 -1 126 -25 150 -29 29 -81 39 -127 25z"/>
<path d="M2427 4020 c-16 -5 -35 -17 -42 -27 -21 -27 -45 -107 -45 -148 0 -40
28 -134 44 -150 22 -21 66 -45 82 -45 32 0 92 33 103 57 14 32 14 221 0 263
-18 49 -76 70 -142 50z"/>
<path d="M6690 4017 c-13 -7 -35 -30 -47 -52 -31 -54 -33 -182 -3 -239 50 -98
157 -99 209 -2 17 33 21 58 21 124 0 71 -4 88 -25 123 -36 57 -98 75 -155 46z"/>
<path d="M10762 4019 c-48 -14 -62 -55 -62 -184 0 -118 9 -143 63 -170 49 -24
82 -19 120 19 37 37 47 69 47 155 0 127 -26 177 -95 185 -22 3 -55 1 -73 -5z"/>
</g>
</svg>
