<?xml version="1.0" encoding="UTF-8"?>
<svg version="1.1" xmlns="http://www.w3.org/2000/svg" width="1254" height="1254">
<path d="M0 0 C413.82 0 827.64 0 1254 0 C1254 413.82 1254 827.64 1254 1254 C840.18 1254 426.36 1254 0 1254 C0 840.18 0 426.36 0 0 Z " fill="#000000" transform="translate(0,0)"/>
<path d="M0 0 C1.12019531 0.22993652 2.24039062 0.45987305 3.39453125 0.69677734 C10.66746243 2.22059878 17.84235725 4.00625016 25 6 C26.57587891 6.43868408 26.57587891 6.43868408 28.18359375 6.88623047 C65.85279991 17.56407117 102.33014834 33.79434143 134 57 C134.67643555 57.49387207 135.35287109 57.98774414 136.04980469 58.49658203 C148.2169886 67.41673013 159.88596596 76.78838753 171 87 C171.55655273 87.50611816 172.11310547 88.01223633 172.68652344 88.53369141 C185.3415575 100.04231217 185.3415575 100.04231217 190.23828125 105.92578125 C192.07342515 108.08644957 193.99738955 110.14995569 195.93847656 112.21533203 C201.79192839 118.46869678 207.01050593 125.03225728 212 132 C212.67434082 132.9295752 212.67434082 132.9295752 213.36230469 133.87792969 C224.73481283 149.56228926 235.24980005 165.70039511 244 183 C244.35078613 183.68787598 244.70157227 184.37575195 245.06298828 185.08447266 C249.80671197 194.3966957 254.20028468 203.6737468 257.8125 213.5 C259.73214818 218.7060187 261.76869658 223.8286342 263.9375 228.9375 C270.4779483 245.21137136 274.45590904 262.50899126 277.57495117 279.73144531 C278.03705709 282.19777971 278.55450124 284.64984454 279.0703125 287.10546875 C279.89477209 291.19924142 280.34196767 295.19896228 280.5625 299.375 C280.73127915 303.63955249 280.73127915 303.63955249 281.48120117 307.81762695 C284.18240831 319.18049311 283.24090224 332.0618975 283.25 343.6875 C283.25100708 344.58740662 283.25201416 345.48731323 283.25305176 346.41448975 C283.24147358 361.79610152 282.36580367 376.77910483 280 392 C279.83419434 393.08087891 279.66838867 394.16175781 279.49755859 395.27539062 C278.70529232 400.33572027 277.87396237 405.38896589 276.96484375 410.4296875 C276.8268335 411.19522949 276.68882324 411.96077148 276.54663086 412.74951172 C276 415 276 415 275.01831055 417.3684082 C273.82474542 420.45290556 273.30543634 423.41679202 272.7421875 426.67578125 C271.18895734 434.9816837 268.64788542 442.86756652 265.92138672 450.85327148 C265.12332412 453.19241204 264.33993977 455.53608835 263.55859375 457.88085938 C256.47471245 478.9856259 256.47471245 478.9856259 251.9375 486.625 C250.35101219 489.38855942 249.23904025 491.85547958 248.125 494.8125 C246.39056647 499.29763672 244.19439184 503.23263924 241.64306641 507.30004883 C240.07269615 509.88054283 238.63060648 512.49437741 237.2109375 515.16015625 C234.17989558 520.74574646 230.9162889 526.14279346 227.5 531.5 C226.89978027 532.44125732 226.29956055 533.38251465 225.68115234 534.35229492 C217.88786413 546.4356433 209.64665228 558.47707443 199.8125 569.0078125 C197.80901964 571.20991376 196.01568586 573.52549552 194.1875 575.875 C189.61872871 581.51407786 184.56664788 586.62035955 179.4375 591.75 C178.63401123 592.55421387 177.83052246 593.35842773 177.00268555 594.18701172 C172.15838215 598.98711799 167.20043848 603.58876437 162 608 C161.40566162 608.50644043 160.81132324 609.01288086 160.19897461 609.53466797 C143.92336399 623.27692692 126.437044 635.3453889 108 646 C107.15743652 646.48710449 106.31487305 646.97420898 105.44677734 647.47607422 C69.22026914 668.22549833 29.78121878 681.73381197 -11.375 688.4375 C-12.14074341 688.56337494 -12.90648682 688.68924988 -13.69543457 688.81893921 C-98.9440485 702.63562427 -191.6876013 681.16671143 -262 631 C-262.58007812 630.58685547 -263.16015625 630.17371094 -263.7578125 629.74804688 C-274.91005067 621.77396711 -285.54934889 613.34376697 -295.68359375 604.09765625 C-297.67524817 602.29408387 -299.70021857 600.54893904 -301.75 598.8125 C-310.83165696 590.87295811 -319.33580854 582.21828034 -326.80859375 572.75 C-328.77268918 570.2852528 -330.80585936 567.89964411 -332.87573242 565.52368164 C-343.0938371 553.72993034 -351.92810451 540.97427407 -360.1875 527.75 C-361.01677002 526.42838867 -361.01677002 526.42838867 -361.86279297 525.08007812 C-364.48117372 520.81503594 -366.6995975 516.88249282 -368 512 C-368.66 512 -369.32 512 -370 512 C-370.30703857 511.35562988 -370.61407715 510.71125977 -370.93041992 510.04736328 C-372.34847441 507.07277762 -373.76797951 504.09888633 -375.1875 501.125 C-375.67025391 500.11179687 -376.15300781 499.09859375 -376.65039062 498.0546875 C-378.94699994 493.24568008 -381.26762528 488.45724489 -383.69140625 483.7109375 C-385.70523068 479.69928089 -387.30359182 475.74994008 -388.75 471.5 C-389.25243789 470.03249514 -389.7550546 468.5650515 -390.2578125 467.09765625 C-390.53012695 466.29602051 -390.80244141 465.49438477 -391.08300781 464.66845703 C-392.11486333 461.66574649 -393.17722358 458.67471823 -394.2421875 455.68359375 C-398.42255711 443.89042421 -402.39189235 432.25318497 -405 420 C-405.16306641 419.25685547 -405.32613281 418.51371094 -405.49414062 417.74804688 C-407.60183189 408.09371573 -409.33021025 398.4134244 -410.6875 388.625 C-410.80681885 387.77083496 -410.9261377 386.91666992 -411.04907227 386.03662109 C-419.13764063 324.70854596 -409.07925491 262.69380767 -385 206 C-384.28263672 204.25009766 -384.28263672 204.25009766 -383.55078125 202.46484375 C-372.34977304 175.55803615 -356.34120257 149.74281986 -337.8359375 127.234375 C-336.61001556 125.74240192 -335.40669268 124.23157554 -334.2265625 122.703125 C-321.45286427 106.21050197 -306.09565511 90.00103031 -289.68359375 77.125 C-287.2195562 75.17385527 -284.84488118 73.14418518 -282.47729492 71.07788086 C-252.15005538 44.76161861 -212.55470392 21.74225657 -173.55981445 11.68481445 C-171.19031967 11.05091528 -168.89259721 10.32180739 -166.57421875 9.5234375 C-151.17688473 4.2807765 -135.20967986 0.80358084 -119.1875 -1.875 C-117.98005127 -2.07786621 -116.77260254 -2.28073242 -115.52856445 -2.48974609 C-78.18540304 -8.43566748 -37.00619094 -7.84775746 0 0 Z " fill="#FCFCFC" transform="translate(692,172)"/>
<path d="M0 0 C1.42563263 -0.00101212 1.42563263 -0.00101212 2.88006592 -0.00204468 C73.29015197 0.07705781 142.20091457 24.14188597 196.74951172 68.91699219 C197.80874094 69.78563015 198.87267396 70.64857341 199.94189453 71.50488281 C217.43834733 85.53923664 234.20445157 102.08293232 247.375 120.25 C248.21868067 121.33355711 249.06777066 122.41292138 249.921875 123.48828125 C264.36663746 141.70373198 277.40036202 162.81193096 286.375 184.25 C286.68332764 184.96478516 286.99165527 185.67957031 287.30932617 186.41601562 C295.6522349 205.77333681 303.54851432 225.94355106 306.8359375 246.8515625 C307.35565654 250.12805211 308.08762362 253.2789148 308.875 256.5 C315.77299865 289.01913648 315.08401815 323.50189663 310.375 356.25 C310.10883241 358.21346819 309.8431935 360.17700813 309.578125 362.140625 C308.6069138 369.09133086 307.61385658 375.58412136 305.375 382.25 C305.10040667 383.68379206 304.84044927 385.12041503 304.58984375 386.55859375 C303.08981177 394.34046343 300.45116143 401.81181371 297.9375 409.3125 C297.67211426 410.10690491 297.40672852 410.90130981 297.13330078 411.7197876 C288.34655576 437.89029094 277.08324183 463.4239611 261.375 486.25 C260.653125 487.30574219 259.93125 488.36148437 259.1875 489.44921875 C247.17691597 506.75447471 233.39529413 522.50446735 218.375 537.25 C217.50875 538.11625 216.6425 538.9825 215.75 539.875 C214.96625 540.65875 214.1825 541.4425 213.375 542.25 C212.8903125 542.75789062 212.405625 543.26578125 211.90625 543.7890625 C206.77574928 549.08896655 201.15173322 553.67362693 195.375 558.25 C194.36179687 559.05695312 193.34859375 559.86390625 192.3046875 560.6953125 C166.81585011 580.78209707 121.85070706 613.90680215 88.375 611.25 C82.69992775 609.24703332 79.06824911 605.63649821 76.375 600.25 C76.27597479 598.88115168 76.23728636 597.50767656 76.23023987 596.13526917 C76.22334137 595.27334457 76.21644287 594.41141998 76.20933533 593.52337646 C76.20541527 592.10136932 76.20541527 592.10136932 76.20141602 590.65063477 C76.194729 589.65364059 76.18804199 588.65664642 76.18115234 587.62944031 C76.16707574 585.4577667 76.15519006 583.28607806 76.14520454 581.11438179 C76.12880832 577.67083992 76.10556668 574.22740784 76.08030701 570.78392029 C76.00952319 560.99052407 75.94962837 551.19708093 75.89819336 541.40356445 C75.86626793 535.4165359 75.82494849 529.42962998 75.77799797 523.44270134 C75.76204713 521.16591556 75.74969389 518.88910148 75.74109077 516.61227608 C75.7288351 513.41269744 75.70463971 510.21340266 75.67797852 507.01391602 C75.6770948 505.61923599 75.6770948 505.61923599 75.67619324 504.19638062 C75.47816556 486.11604353 70.10037646 470.08978861 58.375 456.25 C57.715 455.92 57.055 455.59 56.375 455.25 C56.375 454.59 56.375 453.93 56.375 453.25 C57.0870459 453.16548584 57.7990918 453.08097168 58.53271484 452.99389648 C101.32637357 447.76873121 145.26821956 435.57692885 173.1875 400.3125 C185.65039138 384.03730113 193.32435064 365.28727096 197.375 345.25 C197.55015137 344.40147461 197.72530273 343.55294922 197.90576172 342.67871094 C200.3088821 330.86249457 202.08978248 319.32420814 202.375 307.25 C202.41367188 306.1671875 202.41367188 306.1671875 202.453125 305.0625 C203.53944941 273.3418272 195.91107276 240.50766438 174.375 216.25 C172.94199544 215.1814447 171.50494259 214.11828022 170.0625 213.0625 C168.359375 211.46875 168.359375 211.46875 167.375 209.25 C167.91019558 204.06930679 169.27504851 199.27366752 170.77490234 194.29931641 C177.33591022 171.89366136 173.32913424 142.75715828 162.375 122.25 C149.07050757 121.79845977 149.07050757 121.79845977 136.375 125.25 C134.47211484 125.86731714 132.56910806 126.48427003 130.66479492 127.09716797 C112.72218812 133.02609973 97.42532633 142.80789574 82.25 153.89648438 C77.74106277 157.15137344 76.07973192 157.38791823 70.75244141 156.65478516 C68.01350531 156.18845161 65.31072855 155.60716497 62.61303711 154.94238281 C28.40944634 146.52078194 -7.89805461 145.25353283 -42.625 151.25 C-44.23544151 151.50539617 -45.84611368 151.75934276 -47.45703125 152.01171875 C-53.66686912 153.01678687 -59.75564147 154.20812887 -65.8125 155.9375 C-73.05026662 157.96494668 -73.05026662 157.96494668 -76.625 157.25 C-78.60793009 156.0065474 -80.38853413 154.60118011 -82.21484375 153.13671875 C-90.96398746 146.28771322 -100.68804289 141.01604451 -110.5 135.875 C-111.47461182 135.36308105 -112.44922363 134.85116211 -113.45336914 134.32373047 C-118.75880274 131.584475 -123.99337792 129.23015099 -129.625 127.25 C-130.51703125 126.88777344 -131.4090625 126.52554688 -132.328125 126.15234375 C-141.82074582 122.55621286 -151.58869096 122.00371491 -161.625 121.25 C-164.06856654 128.5532095 -166.48651165 135.85015142 -168.625 143.25 C-168.92921875 144.2503125 -169.2334375 145.250625 -169.546875 146.28125 C-174.04436412 163.42262364 -172.64846664 182.12988608 -168.59765625 199.203125 C-168.43338135 199.90187744 -168.26910645 200.60062988 -168.09985352 201.32055664 C-167.67675345 203.03971338 -167.20128452 204.74578869 -166.71875 206.44921875 C-166.625 209.25 -166.625 209.25 -168.43359375 212.00390625 C-169.30113281 212.93074219 -170.16867187 213.85757813 -171.0625 214.8125 C-176.44704072 220.8298474 -180.65108241 227.2053279 -184.625 234.25 C-185.15867187 235.19230469 -185.69234375 236.13460937 -186.2421875 237.10546875 C-189.30783651 242.86348826 -191.6830087 248.78453059 -193.8125 254.9375 C-194.05049316 255.60676514 -194.28848633 256.27603027 -194.53369141 256.96557617 C-199.3885961 271.65787184 -200.16857176 286.53577787 -200.0625 301.875 C-200.05979095 302.79554169 -200.05708191 303.71608337 -200.05429077 304.66452026 C-199.99106692 318.84773846 -199.20873844 332.46348882 -195.625 346.25 C-195.43244629 347.01940918 -195.23989258 347.78881836 -195.04150391 348.58154297 C-186.22974777 383.09977567 -168.55836491 410.58252515 -137.75 429.25 C-112.48427337 444.07175425 -84.42696761 450.22009004 -55.625 453.25 C-55.625 453.91 -55.625 454.57 -55.625 455.25 C-56.73681641 456.11625 -56.73681641 456.11625 -57.87109375 457 C-65.78597993 463.46663041 -70.26391303 474.54036143 -72.625 484.25 C-72.79207059 486.06246281 -72.95876119 487.87496071 -73.125 489.6875 C-73.5625 492.125 -73.5625 492.125 -74.625 494.25 C-78.37068616 496.74712411 -82.33056991 497.98236702 -86.625 499.25 C-87.55054688 499.55550781 -88.47609375 499.86101562 -89.4296875 500.17578125 C-106.45086719 505.6339407 -126.28151788 505.04584653 -142.64453125 497.78515625 C-155.92367567 490.94543966 -164.35835589 480.65263109 -171.96508789 468.15014648 C-180.45523713 454.24054264 -190.46322201 443.71239718 -205.625 437.25 C-206.36234375 436.9096875 -207.0996875 436.569375 -207.859375 436.21875 C-214.71923175 433.433545 -225.15670293 432.38999117 -232.07421875 435.26953125 C-232.58597656 435.59308594 -233.09773438 435.91664063 -233.625 436.25 C-233.56103198 439.44840092 -233.50634324 442.16262847 -231.421875 444.734375 C-228.68280303 447.10114592 -225.74696058 449.16237783 -222.80859375 451.2734375 C-206.42240854 463.20207808 -197.84118879 478.13931539 -189.57763672 496.171875 C-179.84239604 517.40877111 -167.69470088 530.8284147 -146.08984375 539.8203125 C-135.09693426 543.65129612 -124.07721686 544.72909844 -112.53564453 544.58618164 C-110.49341561 544.5624234 -108.45249048 544.56567745 -106.41015625 544.57226562 C-98.96993824 544.55516245 -91.82111068 544.02395615 -84.49658203 542.67651367 C-81.49706594 542.23099806 -78.65293682 542.22138263 -75.625 542.25 C-75.50871782 549.67391846 -75.42008992 557.09763789 -75.36593914 564.52228546 C-75.33993794 567.97058981 -75.30471811 571.41826729 -75.24780273 574.86621094 C-75.18265991 578.83781206 -75.15874095 582.80916684 -75.13671875 586.78125 C-75.11091232 588.00863892 -75.0851059 589.23602783 -75.05851746 590.50061035 C-75.05624975 597.46965887 -75.50165321 603.11061528 -80.625 608.25 C-86.0026608 611.37249438 -91.60313027 611.34916788 -97.625 610.25 C-138.48634193 598.94168155 -177.05965821 573.6361034 -207.765625 544.921875 C-209.69765508 543.11653541 -211.63581317 541.33610921 -213.609375 539.578125 C-238.9312607 516.95040593 -258.49092912 488.95214752 -274.55859375 459.20654297 C-275.487293 457.50265199 -276.44437734 455.81429277 -277.40625 454.12890625 C-280.67153023 448.38967645 -283.14264704 442.59598045 -285.41796875 436.3984375 C-286.4814763 433.62436927 -287.67987891 431.03244246 -289 428.375 C-294.991697 415.48434589 -298.28945821 401.05200745 -301.80078125 387.30859375 C-302.58011939 384.2676136 -302.58011939 384.2676136 -303.61181641 381.43066406 C-304.58811949 378.36577813 -305.17982397 375.47723841 -305.66015625 372.30078125 C-305.82966797 371.20572266 -305.99917969 370.11066406 -306.17382812 368.98242188 C-306.34333984 367.85384766 -306.51285156 366.72527344 -306.6875 365.5625 C-307.03028896 363.30824845 -307.37524056 361.05432439 -307.72265625 358.80078125 C-307.94707397 357.31058472 -307.94707397 357.31058472 -308.17602539 355.7902832 C-308.58076977 353.13887679 -308.58076977 353.13887679 -309.625 350.25 C-311.23899575 338.57671168 -310.84560322 326.58707555 -310.86523438 314.83374023 C-310.874891 311.35180313 -310.90597045 307.87046997 -310.9375 304.38867188 C-311.02076438 286.63799729 -309.64978549 269.41750062 -305.3203125 252.16796875 C-304.14704005 247.24417933 -303.39090069 242.250881 -302.625 237.25 C-301.965 237.25 -301.305 237.25 -300.625 237.25 C-300.59921875 236.58355469 -300.5734375 235.91710937 -300.546875 235.23046875 C-300.1687029 229.08517212 -299.05128254 223.97680165 -296.79296875 218.26171875 C-295.01625134 213.68028355 -293.56637065 208.99399559 -292.06640625 204.31640625 C-285.17216477 184.13946703 -275.2554097 164.11397462 -263.625 146.25 C-263.23248047 145.63801758 -262.83996094 145.02603516 -262.43554688 144.39550781 C-256.6059819 135.31857027 -250.3182907 126.70526623 -243.625 118.25 C-242.97015625 117.40050781 -242.3153125 116.55101562 -241.640625 115.67578125 C-228.67393674 99.03877007 -213.31449936 83.1346394 -196.625 70.25 C-195.26444996 69.16292735 -193.9051807 68.07425067 -192.546875 66.984375 C-158.11617025 39.53459531 -116.78077259 18.17796347 -73.65869141 8.70410156 C-71.89420331 8.31011022 -70.13930181 7.87364702 -68.38671875 7.4296875 C-61.03936475 5.58068451 -53.59716555 4.3464803 -46.125 3.125 C-44.57582886 2.86867798 -44.57582886 2.86867798 -42.99536133 2.60717773 C-28.68177769 0.33677843 -14.46001195 0.00926461 0 0 Z " fill="#010101" transform="translate(625.625,202.75)"/>
<path d="M0 0 C1.91015625 1.32421875 1.91015625 1.32421875 4.59765625 3.94921875 C4.59765625 4.60921875 4.59765625 5.26921875 4.59765625 5.94921875 C5.25765625 5.94921875 5.91765625 5.94921875 6.59765625 5.94921875 C6.59765625 3.96921875 6.59765625 1.98921875 6.59765625 -0.05078125 C11.21765625 -0.05078125 15.83765625 -0.05078125 20.59765625 -0.05078125 C20.71105296 8.51224057 20.80259767 17.07466925 20.85671711 25.63824272 C20.88270443 29.61555976 20.91789991 33.59233223 20.97485352 37.56933594 C21.02956645 41.41436159 21.0591583 45.25886668 21.07204247 49.10425186 C21.08121261 50.56418161 21.09911852 52.02408598 21.12630653 53.48379135 C21.28191879 62.19250742 20.93296569 69.68178056 15.59765625 76.94921875 C9.06075803 83.32907051 2.22415792 86.07126987 -6.83984375 86.32421875 C-16.09262013 86.08861565 -23.77049594 83.58106656 -30.40234375 76.94921875 C-30.26490445 72.00140377 -27.57601065 69.44838995 -24.40234375 65.94921875 C-21.84005708 67.17911635 -19.59445443 68.48781163 -17.21484375 70.07421875 C-13.0018599 72.48809576 -9.15161127 72.66592639 -4.40234375 71.94921875 C-1.15510051 70.76840303 0.83638901 69.91810433 2.97265625 67.19921875 C3.83864575 64.08165655 3.72134066 61.16501348 3.59765625 57.94921875 C2.52515625 58.60921875 1.45265625 59.26921875 0.34765625 59.94921875 C-6.02397429 63.13503402 -12.98182058 62.98182952 -19.71484375 60.94921875 C-26.83483574 55.65062006 -30.92711791 49.45687674 -33.40234375 40.94921875 C-33.94879853 37.09550418 -34.00884333 33.3367108 -33.96484375 29.44921875 C-33.98869141 28.48113281 -34.01253906 27.51304687 -34.03710938 26.515625 C-34.02046364 18.24824478 -31.70163456 11.84838062 -26.33984375 5.51171875 C-25.38078125 4.73828125 -25.38078125 4.73828125 -24.40234375 3.94921875 C-23.76296875 3.41296875 -23.12359375 2.87671875 -22.46484375 2.32421875 C-16.09182228 -1.92446223 -7.12549922 -3.11668177 0 0 Z " fill="#F5F5F5" transform="translate(144.40234375,951.05078125)"/>
<path d="M0 0 C5.28 0 10.56 0 16 0 C16.33 9.9 16.66 19.8 17 30 C18.65 28.68 20.3 27.36 22 26 C27.77871991 23.941675 34.0377472 24.32932068 39.6875 26.5625 C46.7404989 30.0582272 50.46094768 35.65011171 53 43 C55.42909067 55.14545336 55.33268812 68.80083061 48.38671875 79.48046875 C44.2808134 84.4785664 40.15596436 87.60191813 33.5625 88.43359375 C21.71607315 88.44658325 21.71607315 88.44658325 17 84 C16.505 83.505 16.505 83.505 16 83 C15.67 84.32 15.34 85.64 15 87 C10.05 87 5.1 87 0 87 C0 58.29 0 29.58 0 0 Z " fill="#F5F5F5" transform="translate(374,925)"/>
<path d="M0 0 C0.495 1.485 0.495 1.485 1 3 C1.7425 3.268125 2.485 3.53625 3.25 3.8125 C8.33417186 6.00793785 10.92851367 10.37755575 13.3125 15.1875 C17.09320031 25.24385668 16.00210188 37.87334476 13 48 C10.23356551 54.06487561 6.39400649 58.0791 1 62 C-2.44665742 63.14888581 -5.24351905 63.2039347 -8.875 63.25 C-10.08929687 63.27578125 -11.30359375 63.3015625 -12.5546875 63.328125 C-16.22505936 62.97856577 -18.11536365 62.25944901 -21 60 C-21 59.34 -21 58.68 -21 58 C-21.66 58 -22.32 58 -23 58 C-23 67.24 -23 76.48 -23 86 C-28.28 86 -33.56 86 -39 86 C-39 57.95 -39 29.9 -39 1 C-34.05 1 -29.1 1 -24 1 C-24 2.65 -24 4.3 -24 6 C-23.52433594 5.566875 -23.04867187 5.13375 -22.55859375 4.6875 C-15.3811614 -1.02272242 -8.77322925 -0.62418232 0 0 Z " fill="#F3F3F3" transform="translate(961,950)"/>
<path d="M0 0 C2.078125 1.66015625 2.078125 1.66015625 3.859375 3.34765625 C5.74754 5.06476532 5.74754 5.06476532 9.578125 4.66015625 C11.06688456 3.39794705 12.55400219 2.13337993 14.015625 0.83984375 C16.45271245 -1.00015727 18.56719233 -1.15918779 21.578125 -1.33984375 C22.856875 -1.42234375 24.135625 -1.50484375 25.453125 -1.58984375 C30.51970545 -1.49296841 35.20961164 -0.37256788 39.12109375 2.984375 C44.92460804 9.46865343 44.85843831 16.3167629 44.7734375 24.52734375 C44.7706076 25.56206818 44.76777771 26.5967926 44.76486206 27.66287231 C44.75370548 30.95375339 44.72860897 34.24435803 44.703125 37.53515625 C44.69308937 39.77213147 44.68396453 42.00911098 44.67578125 44.24609375 C44.6537809 49.71755373 44.619282 55.18880819 44.578125 60.66015625 C39.298125 60.66015625 34.018125 60.66015625 28.578125 60.66015625 C28.56354248 59.34297607 28.54895996 58.0257959 28.53393555 56.66870117 C28.47601787 51.78756387 28.39878464 46.90689107 28.31567383 42.02612305 C28.28239372 39.91259289 28.25437147 37.79897319 28.23168945 35.68530273 C28.19820028 32.64918819 28.14588736 29.6138965 28.08984375 26.578125 C28.08345383 25.63116257 28.0770639 24.68420013 28.07048035 23.70854187 C28.05068619 22.82785538 28.03089203 21.94716888 28.01049805 21.03979492 C27.99939499 20.26480148 27.98829193 19.48980804 27.97685242 18.69132996 C27.47519345 16.13580842 26.61485516 15.23947286 24.578125 13.66015625 C22.2114363 13.11114105 22.2114363 13.11114105 19.640625 13.16015625 C18.78597656 13.12921875 17.93132813 13.09828125 17.05078125 13.06640625 C13.37954263 13.9479675 12.54392669 15.45856219 10.578125 18.66015625 C9.97743939 21.88332768 9.97325257 25.06377163 9.96875 28.3359375 C9.95221375 29.26109665 9.93567749 30.1862558 9.91864014 31.13945007 C9.87019504 34.0839199 9.84879689 37.02787338 9.828125 39.97265625 C9.79996241 41.97333322 9.77003458 43.97398617 9.73828125 45.97460938 C9.6644369 50.86974916 9.61484086 55.76460288 9.578125 60.66015625 C4.298125 60.66015625 -0.981875 60.66015625 -6.421875 60.66015625 C-6.43645752 59.34297607 -6.45104004 58.0257959 -6.46606445 56.66870117 C-6.52398213 51.78756387 -6.60121536 46.90689107 -6.68432617 42.02612305 C-6.71760628 39.91259289 -6.74562853 37.79897319 -6.76831055 35.68530273 C-6.80179972 32.64918819 -6.85411264 29.6138965 -6.91015625 26.578125 C-6.91654617 25.63116257 -6.9229361 24.68420013 -6.92951965 23.70854187 C-6.94931381 22.82785538 -6.96910797 21.94716888 -6.98950195 21.03979492 C-7.00615654 19.87730476 -7.00615654 19.87730476 -7.02314758 18.69132996 C-7.52478343 16.13592617 -8.38375427 15.23778542 -10.421875 13.66015625 C-12.79080185 13.14827371 -12.79080185 13.14827371 -15.359375 13.22265625 C-16.21402344 13.20332031 -17.06867187 13.18398438 -17.94921875 13.1640625 C-21.40543324 13.85748942 -22.33312996 14.7976415 -24.421875 17.66015625 C-25.0441492 20.9184098 -25.02682952 24.14725359 -25.03125 27.45703125 C-25.04778625 28.40580139 -25.06432251 29.35457153 -25.08135986 30.33209229 C-25.12988939 33.35817913 -25.15122195 36.38376326 -25.171875 39.41015625 C-25.20003051 41.46356703 -25.22995735 43.51695433 -25.26171875 45.5703125 C-25.33564984 50.60021904 -25.38519433 55.62984569 -25.421875 60.66015625 C-30.371875 60.66015625 -35.321875 60.66015625 -40.421875 60.66015625 C-40.421875 40.86015625 -40.421875 21.06015625 -40.421875 0.66015625 C-35.801875 0.66015625 -31.181875 0.66015625 -26.421875 0.66015625 C-26.421875 2.31015625 -26.421875 3.96015625 -26.421875 5.66015625 C-25.89078125 5.23863281 -25.3596875 4.81710937 -24.8125 4.3828125 C-23.75289062 3.56103516 -23.75289062 3.56103516 -22.671875 2.72265625 C-21.97578125 2.17738281 -21.2796875 1.63210938 -20.5625 1.0703125 C-15.04461167 -2.56464678 -5.76522301 -3.18947015 0 0 Z " fill="#F6F5F6" transform="translate(632.421875,951.33984375)"/>
<path d="M0 0 C9.2541204 5.665788 15.08397617 11.1445102 18.0625 21.875 C19.26041061 33.58930478 17.88212411 44.51497536 10.875 54.375 C3.00087938 61.37421833 -4.58962483 62.88041256 -14.86328125 62.3515625 C-21.27805297 61.76343093 -26.12434095 59.63912796 -30.73046875 55.11328125 C-32.37043828 53.11697267 -33.66314459 51.12105141 -34.9375 48.875 C-35.35 48.16859375 -35.7625 47.4621875 -36.1875 46.734375 C-40.33259454 38.27147364 -40.25360343 27.92596076 -38.27734375 18.83984375 C-35.33796861 10.60704844 -29.48362391 3.69570907 -21.6640625 -0.28125 C-15.0465834 -2.32906588 -6.55059031 -2.4997655 0 0 Z " fill="#F4F4F4" transform="translate(563.9375,951.125)"/>
<path d="M0 0 C5.61 0 11.22 0 17 0 C17.33 9.9 17.66 19.8 18 30 C19.65 28.68 21.3 27.36 23 26 C26.10485889 24.8379835 29.13920358 24.83537307 32.4375 24.8125 C33.82775391 24.79123047 33.82775391 24.79123047 35.24609375 24.76953125 C40.36951551 25.19829988 43.35745354 26.88864276 46.6875 30.75 C47.55955078 31.73226562 47.55955078 31.73226562 48.44921875 32.734375 C52.50826905 38.66447367 52.26840774 44.74275599 52.1953125 51.6484375 C52.1924826 52.66096588 52.18965271 53.67349426 52.18673706 54.71670532 C52.17558254 57.93625938 52.15048646 61.15553065 52.125 64.375 C52.1149641 66.56379805 52.10583931 68.75260049 52.09765625 70.94140625 C52.07565865 76.29437904 52.04116122 81.64714165 52 87 C46.72 87 41.44 87 36 87 C35.98598145 85.02422974 35.98598145 85.02422974 35.97167969 83.00854492 C35.93184486 78.12733992 35.86610427 73.24676954 35.79248047 68.3659668 C35.76423305 66.25244288 35.74303736 64.13881257 35.72900391 62.02514648 C35.70762666 58.988865 35.66100331 55.95386771 35.609375 52.91796875 C35.60814636 51.97100632 35.60691772 51.02404388 35.60565186 50.04838562 C35.6404338 45.01445806 35.6404338 45.01445806 33.11425781 40.9050293 C30.60083597 39.82913383 28.7327927 39.60000494 26 39.625 C25.154375 39.61726562 24.30875 39.60953125 23.4375 39.6015625 C20.24691676 40.12310015 19.18936568 40.5677179 17 43 C16.3549642 46.29255259 16.39496728 49.57119513 16.390625 52.91796875 C16.37408875 53.89034988 16.35755249 54.86273102 16.34051514 55.86457825 C16.29190534 58.97228224 16.27063524 62.07949647 16.25 65.1875 C16.22185121 67.29364461 16.19192532 69.39976627 16.16015625 71.50585938 C16.08614275 76.67053262 16.03664737 81.83493189 16 87 C10.72 87 5.44 87 0 87 C0 58.29 0 29.58 0 0 Z " fill="#F0F0F0" transform="translate(248,925)"/>
<path d="M0 0 C5.28 0 10.56 0 16 0 C16 10.23 16 20.46 16 31 C18.97 29.02 21.94 27.04 25 25 C30.80778182 23.61211096 36.52921343 24.36433119 41.9375 26.875 C46.89118 30.20551318 49.02354285 34.45798651 51 40 C51.60214163 43.7801279 51.58923824 47.43783652 51.48828125 51.2578125 C51.48120651 52.28687714 51.47413177 53.31594177 51.46684265 54.37619019 C51.43910641 57.62656875 51.37640692 60.87515213 51.3125 64.125 C51.28739031 66.34372492 51.26458185 68.56247715 51.24414062 70.78125 C51.1893478 76.18817976 51.1032205 81.59378674 51 87 C45.72 87 40.44 87 35 87 C34.970271 85.03208496 34.970271 85.03208496 34.93994141 83.02441406 C34.8638625 78.15638045 34.77514836 73.28864484 34.68261719 68.42089844 C34.64433694 66.31418746 34.6094824 64.20741133 34.578125 62.10058594 C34.53245402 59.07202879 34.47446255 56.04391978 34.4140625 53.015625 C34.40251129 52.07382385 34.39096008 51.13202271 34.37905884 50.16168213 C34.35918915 49.28107117 34.33931946 48.40046021 34.31884766 47.49316406 C34.30552399 46.72039124 34.29220032 45.94761841 34.2784729 45.15142822 C33.9674872 42.74881231 33.19312386 41.09289862 32 39 C30.06166004 39.08715017 28.1242571 39.19532964 26.1875 39.3125 C24.56908203 39.39951172 24.56908203 39.39951172 22.91796875 39.48828125 C19.68170737 40.05581839 18.95720087 40.46480933 17 43 C16.53081038 45.07033904 16.53081038 45.07033904 16.56762695 47.37963867 C16.54783279 48.26032516 16.52803864 49.14101166 16.50764465 50.04838562 C16.49805977 51.46882927 16.49805977 51.46882927 16.48828125 52.91796875 C16.47033005 53.89034988 16.45237885 54.86273102 16.43388367 55.86457825 C16.37967533 58.97217464 16.34585102 62.07961652 16.3125 65.1875 C16.27933624 67.29364134 16.24484747 69.39976227 16.20898438 71.50585938 C16.12394269 76.67046161 16.05718159 81.83501719 16 87 C10.72 87 5.44 87 0 87 C0 58.29 0 29.58 0 0 Z " fill="#F4F4F4" transform="translate(985,925)"/>
<path d="M0 0 C5.61 0 11.22 0 17 0 C19.94060754 7.34688066 22.04829152 14.88704831 24.1875 22.5 C24.55893508 23.81258768 24.93067746 25.12508844 25.30273438 26.4375 C26.20484051 29.62416065 27.10383791 32.81166364 28 36 C30.60825286 28.37271166 32.91406991 20.67045117 35.1875 12.9375 C35.73954102 11.06674805 35.73954102 11.06674805 36.30273438 9.15820312 C37.20322736 6.10588274 38.10180831 3.05299837 39 0 C44.61 0 50.22 0 56 0 C53.7563988 8.55443822 51.13108557 16.93575208 48.32421875 25.3203125 C48.10277506 25.98301022 47.88133137 26.64570793 47.65317726 27.3284874 C46.48296947 30.8285182 45.30864172 34.32713606 44.13110352 37.82470703 C42.92646166 41.40584907 41.73735197 44.99195248 40.55153179 48.57936287 C39.62610071 51.3690065 38.68874514 54.15454051 37.74827003 56.93914413 C37.30489864 58.25874354 36.86594488 59.5798369 36.43179893 60.90250015 C30.49789429 78.9458276 30.49789429 78.9458276 22.875 84.5625 C18.00990495 86.97313268 12.27813305 86.50783299 7 86 C6 85 6 85 5.90234375 82.27734375 C5.91394531 81.17519531 5.92554688 80.07304688 5.9375 78.9375 C5.94652344 77.83277344 5.95554687 76.72804688 5.96484375 75.58984375 C5.97644531 74.73519531 5.98804688 73.88054687 6 73 C6.92232422 72.83564453 6.92232422 72.83564453 7.86328125 72.66796875 C8.67152344 72.50941406 9.47976563 72.35085938 10.3125 72.1875 C11.11300781 72.03667969 11.91351562 71.88585937 12.73828125 71.73046875 C15.33613762 70.89143742 16.24363335 70.05864033 18 68 C21.07595954 61.57954176 19.59284906 56.14638076 17.35539246 49.6973114 C16.72121147 47.98122429 16.72121147 47.98122429 16.07421875 46.23046875 C15.65203568 45.0319075 15.2298526 43.83334625 14.7948761 42.59846497 C13.67539307 39.43240788 12.53688193 36.27464812 11.38793945 33.1192627 C10.22284675 29.90601907 9.08169042 26.68431483 7.93945312 23.46289062 C6.65440301 19.84173497 5.36630143 16.22202563 4.06144714 12.60795593 C3.674673 11.53616592 3.28789886 10.46437592 2.8894043 9.36010742 C2.54805954 8.41906662 2.20671478 7.47802582 1.85502625 6.50846863 C1 4 1 4 0 0 Z " fill="#F6F5F6" transform="translate(1041,951)"/>
<path d="M0 0 C4.78566735 2.20932312 8.11007287 5.63596018 11 10 C11.95081616 13.00272541 12.121787 15.72094068 12.11352539 18.86035156 C12.11344986 19.82104553 12.11337433 20.7817395 12.11329651 21.77154541 C12.10813522 22.80084167 12.10297394 23.83013794 12.09765625 24.890625 C12.0962413 25.95037537 12.09482635 27.01012573 12.09336853 28.10198975 C12.08777382 31.48468862 12.07522225 34.86732115 12.0625 38.25 C12.05748432 40.54426988 12.05292153 42.83854079 12.04882812 45.1328125 C12.03780611 50.75523387 12.02054507 56.37760569 12 62 C7.05 62 2.1 62 -3 62 C-3.0093457 60.71834961 -3.01869141 59.43669922 -3.02832031 58.11621094 C-3.06820061 53.35983558 -3.13395415 48.60410838 -3.20751953 43.84814453 C-3.23574049 41.78996102 -3.25694941 39.7316689 -3.27099609 37.67333984 C-3.2924099 34.71395215 -3.33905221 31.7558718 -3.390625 28.796875 C-3.39185364 27.87694763 -3.39308228 26.95702026 -3.39434814 26.00921631 C-3.46467074 20.85852297 -3.46467074 20.85852297 -5.91308594 16.45019531 C-9.75487986 13.78053505 -12.29801625 13.6015268 -17 14 C-19.86706449 15.28384481 -19.86706449 15.28384481 -22 18 C-22.76040097 21.33030517 -22.72124833 24.61087988 -22.70703125 28.015625 C-22.72215256 28.98659119 -22.73727386 29.95755737 -22.75285339 30.95794678 C-22.79580013 34.0555328 -22.80457526 37.15214566 -22.8125 40.25 C-22.83563883 42.3515885 -22.86100288 44.45315376 -22.88867188 46.5546875 C-22.95159344 51.7032113 -22.9838742 56.85112554 -23 62 C-28.28 62 -33.56 62 -39 62 C-39 41.87 -39 21.74 -39 1 C-34.05 1 -29.1 1 -24 1 C-24 2.98 -24 4.96 -24 7 C-23.16855469 6.36771484 -23.16855469 6.36771484 -22.3203125 5.72265625 C-21.23363281 4.90087891 -21.23363281 4.90087891 -20.125 4.0625 C-19.40570312 3.51722656 -18.68640625 2.97195313 -17.9453125 2.41015625 C-12.68430551 -1.40354561 -6.23821505 -0.73109421 0 0 Z " fill="#F5F5F5" transform="translate(870,950)"/>
<path d="M0 0 C5.28 0 10.56 0 16 0 C16 20.13 16 40.26 16 61 C11.05 61 6.1 61 1 61 C0.505 59.02 0.505 59.02 0 57 C-0.928125 57.639375 -1.85625 58.27875 -2.8125 58.9375 C-9.12178433 63.0199781 -15.68643579 62.58980357 -23 62 C-28.18209427 59.72715164 -31.19591908 55.8149756 -34 51 C-34.95987611 48.12037166 -35.12153814 46.33372559 -35.11352539 43.3449707 C-35.11344986 42.40422195 -35.11337433 41.46347321 -35.11329651 40.49421692 C-35.10813522 39.48163315 -35.10297394 38.46904938 -35.09765625 37.42578125 C-35.0962413 36.38681198 -35.09482635 35.34784271 -35.09336853 34.27738953 C-35.08776656 30.95573052 -35.07521372 27.63413867 -35.0625 24.3125 C-35.05748525 22.06184993 -35.0529223 19.81119881 -35.04882812 17.56054688 C-35.03779648 12.04033867 -35.02053051 6.52018072 -35 1 C-30.05 1 -25.1 1 -20 1 C-19.9906543 2.21059082 -19.98130859 3.42118164 -19.97167969 4.66845703 C-19.93170052 9.1751741 -19.8659196 13.68121422 -19.79248047 18.1875 C-19.76431679 20.13500245 -19.7430794 22.08261822 -19.72900391 24.03027344 C-19.70751054 26.83587468 -19.66082802 29.64012 -19.609375 32.4453125 C-19.60814636 33.31116974 -19.60691772 34.17702698 -19.60565186 35.06912231 C-19.47636418 40.44816294 -18.75821582 43.8429837 -15 48 C-8.63543164 48.92388896 -7.13189996 48.06594998 -1 45 C-0.67 30.15 -0.34 15.3 0 0 Z " fill="#F6F6F6" transform="translate(346,951)"/>
<path d="M0 0 C5.28 0 10.56 0 16 0 C16 20.13 16 40.26 16 61 C11.05 61 6.1 61 1 61 C1 59.35 1 57.7 1 56 C0.34 56 -0.32 56 -1 56 C-1 56.66 -1 57.32 -1 58 C-8.10741804 62.54874755 -14.66765929 63.00109433 -23 62 C-28.27786789 59.5430615 -31.75000024 55.84657265 -34.09716797 50.50146484 C-35.32506141 45.73931025 -35.24714451 41.24839829 -35.1953125 36.3515625 C-35.1924826 35.33903412 -35.18965271 34.32650574 -35.18673706 33.28329468 C-35.17558254 30.06374062 -35.15048646 26.84446935 -35.125 23.625 C-35.1149641 21.43620195 -35.10583931 19.24739951 -35.09765625 17.05859375 C-35.07565865 11.70562096 -35.04116122 6.35285835 -35 1 C-30.05 1 -25.1 1 -20 1 C-19.98541748 2.21582764 -19.97083496 3.43165527 -19.95581055 4.68432617 C-19.89774902 9.20399078 -19.8205164 13.72316127 -19.73754883 18.24243164 C-19.70433646 20.19677702 -19.67629305 22.15121747 -19.65356445 24.10571289 C-19.61995067 26.91854282 -19.56763146 29.73050447 -19.51171875 32.54296875 C-19.50532883 33.41398727 -19.4989389 34.2850058 -19.49235535 35.18241882 C-19.36705014 40.37635329 -18.85746846 44.14253154 -15 48 C-13.03400963 48.20014986 -13.03400963 48.20014986 -10.75 48.1875 C-9.98171875 48.20167969 -9.2134375 48.21585938 -8.421875 48.23046875 C-5.48297784 48.06556178 -5.48297784 48.06556178 -1 46 C-0.67 30.82 -0.34 15.64 0 0 Z " fill="#F7F7F8" transform="translate(804,951)"/>
<path d="M0 0 C4.05934422 2.56379635 8.60081828 5.76413656 10.78125 10.125 C10.91540472 12.7973621 10.82443541 15.44750488 10.78125 18.125 C5.83125 18.125 0.88125 18.125 -4.21875 18.125 C-4.87875 16.475 -5.53875 14.825 -6.21875 13.125 C-9.35286302 11.03559132 -10.19325472 10.85135588 -13.78125 10.875 C-14.56628906 10.86984375 -15.35132813 10.8646875 -16.16015625 10.859375 C-18.44165968 10.94070738 -18.44165968 10.94070738 -20.21875 13.125 C-20.71885524 16.08269177 -20.71885524 16.08269177 -20.21875 19.125 C-16.9924899 22.3512601 -13.38536429 22.99691149 -9.03125 24 C-0.60046879 26.08908825 6.90146091 28.53183367 11.78125 36.125 C12.171875 39.45703125 12.171875 39.45703125 12.03125 42.9375 C11.99515625 44.09894531 11.9590625 45.26039063 11.921875 46.45703125 C11.87546875 47.33746094 11.8290625 48.21789062 11.78125 49.125 C11.12125 49.125 10.46125 49.125 9.78125 49.125 C9.63236328 50.01832031 9.63236328 50.01832031 9.48046875 50.9296875 C8.64693098 53.54671669 7.67802399 54.4924003 5.59375 56.25 C5.02269531 56.74757813 4.45164062 57.24515625 3.86328125 57.7578125 C-1.48226952 61.26802407 -6.90880499 61.48967455 -13.09375 61.5 C-13.85816406 61.52449219 -14.62257813 61.54898438 -15.41015625 61.57421875 C-22.26900013 61.60915344 -27.4010393 59.68655518 -32.49609375 55.0546875 C-33.04394531 54.37664063 -33.59179688 53.69859375 -34.15625 53 C-34.72214844 52.31679688 -35.28804687 51.63359375 -35.87109375 50.9296875 C-38.67393139 47.17632231 -38.21875 46.56909573 -38.21875 41.125 C-33.26875 41.125 -28.31875 41.125 -23.21875 41.125 C-22.22875 43.105 -21.23875 45.085 -20.21875 47.125 C-17.00044935 49.27053377 -15.95088493 49.42083868 -12.21875 49.4375 C-11.3525 49.45425781 -10.48625 49.47101562 -9.59375 49.48828125 C-6.76798807 49.05605122 -5.90682376 48.39199649 -4.21875 46.125 C-3.55208333 43.625 -3.55208333 43.625 -4.21875 41.125 C-8.7189158 37.79954159 -13.94211338 36.5788152 -19.24804688 35.10742188 C-26.11259622 33.09685718 -31.00943597 30.04921975 -35.21875 24.125 C-37.19422993 20.17404013 -36.65182325 15.431334 -36.21875 11.125 C-33.60967355 5.70614892 -29.37196164 1.70711843 -23.984375 -0.99609375 C-16.94867726 -3.23201464 -6.80508472 -3.10407373 0 0 Z " fill="#F3F3F3" transform="translate(1138.21875,951.875)"/>
<path d="M0 0 C4.47191883 4.02172566 8.23900432 8.16229934 10 14 C10 15.98 10 17.96 10 20 C4.72 20 -0.56 20 -6 20 C-6.71614583 17.94921875 -7.43229167 15.8984375 -8.1484375 13.84765625 C-8.85271413 11.81317884 -8.85271413 11.81317884 -11 11 C-17.65252917 10.27713005 -17.65252917 10.27713005 -23.5625 12.8125 C-26.60433728 17.44138281 -26.21779222 21.97808602 -26.25 27.3125 C-26.270625 28.15490234 -26.29125 28.99730469 -26.3125 29.86523438 C-26.34456873 34.99222251 -25.92301561 38.59498816 -23 43 C-18.9889205 45.674053 -15.71446603 45.69907091 -11 45 C-7.45070725 42.51549507 -7.07182633 41.28730531 -6 37 C-0.72 37 4.56 37 10 37 C8.818076 45.27346798 6.37157656 50.39987813 -0.125 55.75 C-7.89060934 60.36738934 -17.91659325 60.49531067 -26.55859375 58.37109375 C-33.39680367 55.39853856 -38.73117896 48.53764208 -42 42 C-44.82434288 32.51765675 -44.64829754 18.73848014 -40.19140625 9.90234375 C-36.28800103 3.66969345 -31.25820034 -1.28701927 -24.10546875 -3.6171875 C-15.72956593 -5.14007892 -7.29682604 -4.60336676 0 0 Z " fill="#F3F3F3" transform="translate(510,954)"/>
<path d="M0 0 C5.28 0 10.56 0 16 0 C16 4.95 16 9.9 16 15 C19.63 15 23.26 15 27 15 C27 18.96 27 22.92 27 27 C23.37 27 19.74 27 16 27 C16.09342811 31.80585058 16.19949659 36.61119094 16.31738281 41.41650391 C16.35570852 43.0518424 16.39055507 44.68726624 16.421875 46.32275391 C16.46744842 48.6712091 16.52545367 51.01907495 16.5859375 53.3671875 C16.59748871 54.10057343 16.60903992 54.83395935 16.62094116 55.58956909 C16.61868097 59.74977105 16.61868097 59.74977105 19 63 C21.65537372 63.56520003 24.29144713 63.73788198 27 64 C27 67.96 27 71.92 27 76 C21.10174463 77.96608512 12.73360443 78.34989226 6.78515625 76.19921875 C2.49278056 73.02089477 0.9966185 68.01501986 0 63 C-0.48228782 56.99554537 -0.28361742 50.95420871 -0.1875 44.9375 C-0.17242751 43.29232994 -0.15874364 41.64714655 -0.14648438 40.00195312 C-0.11367782 36.00096859 -0.06203766 32.00063369 0 28 C-2.97 28 -5.94 28 -9 28 C-9 23.71 -9 19.42 -9 15 C-6.03 15 -3.06 15 0 15 C0 10.05 0 5.1 0 0 Z " fill="#F6F6F6" transform="translate(212,936)"/>
<path d="M0 0 C5.61 0 11.22 0 17 0 C17 28.71 17 57.42 17 87 C11.39 87 5.78 87 0 87 C0 58.29 0 29.58 0 0 Z " fill="#EDEDED" transform="translate(740,925)"/>
<path d="M0 0 C1.79244141 0.01740234 1.79244141 0.01740234 3.62109375 0.03515625 C5.41740234 0.04869141 5.41740234 0.04869141 7.25 0.0625 C8.17683594 0.07410156 9.10367188 0.08570313 10.05859375 0.09765625 C9.87683594 0.64147949 9.69507813 1.18530273 9.5078125 1.74560547 C8.1821214 5.71673017 6.86230817 9.68957038 5.55859375 13.66796875 C5.05859375 15.18619792 4.55859375 16.70442708 4.05859375 18.22265625 C3.81109375 18.98191406 3.56359375 19.74117187 3.30859375 20.5234375 C1.77546063 25.1627622 -0.00784658 29.60664167 -1.94140625 34.09765625 C-3.19937172 37.74536176 -4.37989123 41.41321521 -5.5625 45.0859375 C-6.55041788 48.05792689 -7.66880667 50.95406237 -8.84765625 53.85546875 C-11.09228242 59.39291667 -13.06094657 65.01097291 -15.00390625 70.66015625 C-15.34228516 71.63662109 -15.68066406 72.61308594 -16.02929688 73.61914062 C-18.03965173 79.43244915 -20.0071117 85.25861755 -21.94140625 91.09765625 C-26.23140625 91.09765625 -30.52140625 91.09765625 -34.94140625 91.09765625 C-33.35636785 82.50407455 -30.33008558 74.51548011 -27.31640625 66.34765625 C-26.1495405 63.15987561 -24.98685242 59.9705762 -23.82421875 56.78125 C-23.36384216 55.52062996 -23.36384216 55.52062996 -22.89416504 54.23454285 C-20.41095346 47.42232337 -17.97717024 40.59321975 -15.55859375 33.7578125 C-15.19434296 32.728909 -14.83009216 31.70000549 -14.45480347 30.6399231 C-13.0057541 26.54482565 -11.55761047 22.44941863 -10.11395264 18.35241699 C-9.10573385 15.4918947 -8.09415675 12.63257935 -7.08203125 9.7734375 C-6.77844696 8.9084816 -6.47486267 8.0435257 -6.16207886 7.15235901 C-3.66851545 0.12179666 -3.66851545 0.12179666 0 0 Z " fill="#F0F0F1" transform="translate(720.94140625,928.90234375)"/>
<path d="M0 0 C5.28 0 10.56 0 16 0 C16 20.13 16 40.26 16 61 C10.72 61 5.44 61 0 61 C0 40.87 0 20.74 0 0 Z " fill="#F9F8F9" transform="translate(179,951)"/>
<path d="M0 0 C4.95 0 9.9 0 15 0 C15 19.8 15 39.6 15 60 C10.05 60 5.1 60 0 60 C0 40.2 0 20.4 0 0 Z " fill="#FBFAFB" transform="translate(895,952)"/>
<path d="M0 0 C3.64586543 1.31871728 4.6860961 2.52373202 6.8125 5.75 C9.47067139 12.91484127 9.49166941 22.7842589 6.3125 29.75 C3.56602116 33.6099162 1.79611178 35.49988245 -2.921875 36.34375 C-6.90468188 36.64320916 -8.54555209 36.34336065 -11.8125 33.875 C-15.94160825 28.44817202 -17.41676808 24.34996566 -17.375 17.5 C-17.38273438 16.2315625 -17.39046875 14.963125 -17.3984375 13.65625 C-16.87347324 8.83893087 -15.06335003 5.61629204 -12.4375 1.625 C-8.5151536 -0.9898976 -4.5659357 -0.59297866 0 0 Z " fill="#090909" transform="translate(558,964)"/>
<path d="M0 0 C4.97624703 2.48812352 6.96653017 4.88409462 9 10 C9.43727208 12.99074262 9.4650549 15.91898557 9.4375 18.9375 C9.4674707 20.09668945 9.4674707 20.09668945 9.49804688 21.27929688 C9.49322747 26.98064768 8.29705725 30.33165311 5 35 C1.9916623 37.00555847 1.12291351 37.33663294 -2.3125 37.4375 C-3.42044922 37.49744141 -3.42044922 37.49744141 -4.55078125 37.55859375 C-8.39097264 36.68276063 -10.91184192 35.31281094 -13 32 C-13.90421167 27.4881801 -13.83700566 23.08713184 -13.75 18.5 C-13.77320313 17.27667969 -13.79640625 16.05335938 -13.8203125 14.79296875 C-13.76376234 6.16906909 -13.76376234 6.16906909 -11.734375 3.06274414 C-7.99109694 -0.22256725 -4.82165363 -0.77490862 0 0 Z " fill="#0B0B0B" transform="translate(951,963)"/>
<path d="M0 0 C1.57394531 -0.04253906 1.57394531 -0.04253906 3.1796875 -0.0859375 C6.89396397 0.49534184 7.82868293 1.43927115 10.125 4.375 C10.98311429 9.00042672 10.77357545 13.67876955 10.75 18.375 C10.78222656 19.65890625 10.81445312 20.9428125 10.84765625 22.265625 C10.85744085 31.61970284 10.85744085 31.61970284 7.37109375 35.21484375 C3.01573285 36.77145288 -0.32123461 37.34120483 -4.875 36.375 C-9.15039331 33.28216229 -10.54031252 30.3757068 -11.875 25.375 C-12.19234905 22.53600309 -12.24498266 19.72986494 -12.25 16.875 C-12.27449219 16.14152344 -12.29898438 15.40804687 -12.32421875 14.65234375 C-12.35227959 9.42367456 -11.25991603 6.55266589 -7.875 2.375 C-5.20028957 -0.29971043 -3.72694382 0.04556166 0 0 Z " fill="#060505" transform="translate(138.875,963.625)"/>
<path d="M0 0 C3.41865208 1.85176988 4.61943102 3.08231592 6.1015625 6.65625 C7.11724642 10.43636059 7.38420146 13.98738516 7.375 17.875 C7.37338867 18.58027832 7.37177734 19.28555664 7.37011719 20.01220703 C7.23426164 25.77541256 6.35197832 29.34447456 3 34 C-0.21577149 35.97842732 -3.03608226 36.32210233 -6.8046875 36.55859375 C-10.49031086 35.62079279 -12.94952785 34.16094259 -15 31 C-15.87874557 26.65342995 -15.79168795 22.41950761 -15.6875 18 C-15.70973633 16.2365625 -15.70973633 16.2365625 -15.73242188 14.4375 C-15.65049644 5.95580826 -15.65049644 5.95580826 -12.76953125 1.72265625 C-8.44507485 -0.96716783 -4.92858666 -0.8673664 0 0 Z " fill="#060606" transform="translate(405,964)"/>
<path d="M0 0 C3.50811779 2.43420418 4.77376734 3.79342584 5.5625 8 C4.87642343 11.65907504 3.57265686 13.35167676 1 16 C-2.13871188 17.56935594 -4.53855822 17.35201103 -8 17 C-10.93052231 15.00475077 -12.64521503 13.57163515 -13.4453125 10.02734375 C-13.63099028 6.71609006 -13.21285614 4.37018459 -11.5625 1.5 C-7.73473876 -0.74064073 -4.32011646 -0.8840096 0 0 Z " fill="#F2F2F2" transform="translate(451,996)"/>
<path d="M0 0 C3.26745258 0.68720233 4.82738043 1.88335301 6.96875 4.4140625 C8.03125 7.8515625 8.03125 7.8515625 7.96875 11.4140625 C6.20233828 14.21595696 4.93825178 15.92931161 1.96875 17.4140625 C-1.48116293 17.66961161 -4.16585723 17.75566491 -7.40625 16.4765625 C-10.03926951 13.13465313 -10.3166623 9.59279131 -10.03125 5.4140625 C-7.78266125 0.62359082 -5.2886563 -0.37494205 0 0 Z " fill="#ECECEC" transform="translate(188.03125,926.5859375)"/>
<path d="M0 0 C3 1.5625 3 1.5625 5 4 C5.65880751 8.02604587 5.35179182 10.24844476 3.625 13.9375 C0.1521752 16.66614806 -2.31187755 16.71726075 -6.64453125 16.48046875 C-9 16 -9 16 -11.6875 13.9375 C-13.41200869 10.07788532 -13.1739944 8.03560576 -12 4 C-9.04263576 -0.61348821 -5.12514579 -0.98443394 0 0 Z " fill="#F3F3F3" transform="translate(906,927)"/>
<path d="M0 0 C0 0.33 0 0.66 0 1 C-4.455 1.495 -4.455 1.495 -9 2 C-9.66 3.65 -10.32 5.3 -11 7 C-12.7074998 5.71937515 -14.37373596 4.38232443 -16 3 C-16 2.34 -16 1.68 -16 1 C-10.61509359 0.08342019 -5.45769811 -0.11138159 0 0 Z " fill="#2A2A2B" transform="translate(698,655)"/>
<path d="M0 0 C5.28 0 10.56 0 16 0 C16 0.33 16 0.66 16 1 C11.71 1 7.42 1 3 1 C3 1.66 3 2.32 3 3 C2.34 3 1.68 3 1 3 C1 6.96 1 10.92 1 15 C0.67 15 0.34 15 0 15 C0 10.05 0 5.1 0 0 Z " fill="#DDDDDD" transform="translate(212,936)"/>
<path d="M0 0 C0 0.33 0 0.66 0 1 C-2.31 1.33 -4.62 1.66 -7 2 C-7 2.99 -7 3.98 -7 5 C-8.30144802 6.04115841 -9.63838689 7.03886134 -11 8 C-11.66 8.99 -12.32 9.98 -13 11 C-12.71860476 7.34186183 -12.43656214 4.68103694 -10.4375 1.5625 C-6.85236684 -0.73566228 -4.20922245 -0.28061483 0 0 Z " fill="#CAC9CB" transform="translate(906,927)"/>
<path d="M0 0 C0.99 0.33 1.98 0.66 3 1 C2.690625 1.598125 2.38125 2.19625 2.0625 2.8125 C0.89790296 5.08956772 0.89790296 5.08956772 0 8 C-0.66 8 -1.32 8 -2 8 C-2.12375 8.804375 -2.2475 9.60875 -2.375 10.4375 C-2.58125 11.283125 -2.7875 12.12875 -3 13 C-3.99 13.495 -3.99 13.495 -5 14 C-3.45730076 9.27934033 -1.92205381 4.58335908 0 0 Z " fill="#C8C8C9" transform="translate(916,631)"/>
<path d="M0 0 C1.21236328 0.04060547 1.21236328 0.04060547 2.44921875 0.08203125 C3.06410156 0.11683594 3.67898438 0.15164063 4.3125 0.1875 C0.59375 2.234375 0.59375 2.234375 -1.9375 1.8125 C-2.515 1.60625 -3.0925 1.4 -3.6875 1.1875 C-3.6875 1.8475 -3.6875 2.5075 -3.6875 3.1875 C-3.0275 3.5175 -2.3675 3.8475 -1.6875 4.1875 C-2.6775 4.5175 -3.6675 4.8475 -4.6875 5.1875 C-5.3475 4.8575 -6.0075 4.5275 -6.6875 4.1875 C-6.6875 5.8375 -6.6875 7.4875 -6.6875 9.1875 C-7.0175 9.1875 -7.3475 9.1875 -7.6875 9.1875 C-8.05369718 3.69454225 -8.05369718 3.69454225 -6.46875 1.5 C-4.16706546 -0.19597808 -2.82643251 -0.12288837 0 0 Z " fill="#313031" transform="translate(1124.6875,961.8125)"/>
<path d="M0 0 C2.97 0 5.94 0 9 0 C9 0.99 9 1.98 9 3 C2.25 3.125 2.25 3.125 0 2 C0 1.34 0 0.68 0 0 Z " fill="#1F1F1F" transform="translate(549,1013)"/>
<path d="M0 0 C0.33 1.32 0.66 2.64 1 4 C1.33 4.33 1.66 4.66 2 5 C2.3125 7.375 2.3125 7.375 2 10 C0.68 10.99 -0.64 11.98 -2 13 C-1.34 8.71 -0.68 4.42 0 0 Z " fill="#2F2F2F" transform="translate(966,589)"/>
<path d="M0 0 C0.66 0.33 1.32 0.66 2 1 C1.59007812 1.54269531 1.18015625 2.08539062 0.7578125 2.64453125 C-0.05042969 3.71767578 -0.05042969 3.71767578 -0.875 4.8125 C-1.40867188 5.52019531 -1.94234375 6.22789062 -2.4921875 6.95703125 C-3.70814781 8.60456297 -4.86416141 10.29624211 -6 12 C-5.59791618 6.37082652 -3.71069698 3.99613521 0 0 Z " fill="#323232" transform="translate(133,964)"/>
<path d="M0 0 C0.33 0 0.66 0 1 0 C1.31416607 5.23610116 0.77647622 8.51492303 -2 13 C-2.99 13.495 -2.99 13.495 -4 14 C-3.52188823 12.22888156 -3.0424722 10.45811517 -2.5625 8.6875 C-2.29566406 7.70136719 -2.02882813 6.71523438 -1.75390625 5.69921875 C-1.21920575 3.78482474 -0.62855462 1.88566385 0 0 Z " fill="#B9B8B9" transform="translate(715,935)"/>
<path d="M0 0 C2.64 0 5.28 0 8 0 C8 0.66 8 1.32 8 2 C5.5 3.625 5.5 3.625 3 5 C2.67 4.01 2.34 3.02 2 2 C1.34 2 0.68 2 0 2 C0 1.34 0 0.68 0 0 Z " fill="#201F20" transform="translate(562,656)"/>
<path d="M0 0 C0.33 0 0.66 0 1 0 C1.05395478 1.62463842 1.09277195 3.24978541 1.125 4.875 C1.14820313 5.77992188 1.17140625 6.68484375 1.1953125 7.6171875 C1 10 1 10 -1 12 C-1.66 11.67 -2.32 11.34 -3 11 C-2.01 7.37 -1.02 3.74 0 0 Z " fill="#C2C1C3" transform="translate(298,400)"/>
<path d="M0 0 C0.33 0 0.66 0 1 0 C1 3.63 1 7.26 1 11 C1.66 11.33 2.32 11.66 3 12 C2.01 12.33 1.02 12.66 0 13 C0 14.65 0 16.3 0 18 C-0.33 18 -0.66 18 -1 18 C-0.505 9.09 -0.505 9.09 0 0 Z " fill="#98989A" transform="translate(937,540)"/>
<path d="M0 0 C0 4.10202215 -1.4911355 5.81306402 -4 9 C-6.75 10.375 -6.75 10.375 -9 11 C-8.06558465 9.72689688 -7.12732889 8.456612 -6.1875 7.1875 C-5.66542969 6.47980469 -5.14335937 5.77210938 -4.60546875 5.04296875 C-3.16871123 3.21468607 -1.68184237 1.60103312 0 0 Z " fill="#DDDCDD" transform="translate(372,278)"/>
<path d="M0 0 C-1.39332574 3.36720387 -2.9789286 4.9859524 -6 7 C-6.33 6.01 -6.66 5.02 -7 4 C-3.375 0 -3.375 0 0 0 Z " fill="#151416" transform="translate(1008,964)"/>
<path d="M0 0 C2.97 0 5.94 0 9 0 C8.01 1.485 8.01 1.485 7 3 C4.69 2.67 2.38 2.34 0 2 C0 1.34 0 0.68 0 0 Z " fill="#1D1E1D" transform="translate(949,1013)"/>
<path d="M0 0 C0.66 0.66 1.32 1.32 2 2 C0.37660195 3.70884005 -1.29319053 5.37446717 -3 7 C-3.66 7 -4.32 7 -5 7 C-3.70700306 4.11562221 -2.34058637 2.12780579 0 0 Z " fill="#E8E8E9" transform="translate(898,729)"/>
<path d="M0 0 C0.33 0 0.66 0 1 0 C2.43680971 6.13909603 1.32637691 10.20377279 -1 16 C-2.26823485 12.34606463 -1.75715321 9.50929974 -1.0625 5.75 C-0.86785156 4.67234375 -0.67320312 3.5946875 -0.47265625 2.484375 C-0.31667969 1.66453125 -0.16070313 0.8446875 0 0 Z " fill="#9F9EA0" transform="translate(935,559)"/>
<path d="M0 0 C0.33 0 0.66 0 1 0 C1 2.97 1 5.94 1 9 C0.01 9.33 -0.98 9.66 -2 10 C-2.25 3.375 -2.25 3.375 0 0 Z " fill="#F4F4F4" transform="translate(938,555)"/>
<path d="M0 0 C0 0.66 0 1.32 0 2 C-2.81769349 4.17364926 -4.2190681 5.08677021 -7.8125 4.6875 C-8.534375 4.460625 -9.25625 4.23375 -10 4 C-7.25346796 1.25346796 -3.91404908 0 0 0 Z " fill="#E7E7E7" transform="translate(761,328)"/>
<path d="M0 0 C4.40114397 0.50298788 6.71195019 2.08772731 10 5 C9.01 5.33 8.02 5.66 7 6 C5.17578125 5.0390625 5.17578125 5.0390625 3.3125 3.625 C2.68988281 3.16351562 2.06726563 2.70203125 1.42578125 2.2265625 C0.95527344 1.82179688 0.48476563 1.41703125 0 1 C0 0.67 0 0.34 0 0 Z " fill="#1C1C1C" transform="translate(470,691)"/>
<path d="M0 0 C0 0.66 0 1.32 0 2 C-0.99 2.33 -1.98 2.66 -3 3 C-4.37195574 4.29355827 -5.71182656 5.62298702 -7 7 C-7.66 6.67 -8.32 6.34 -9 6 C-7.8803014 4.99406757 -6.7540588 3.9954151 -5.625 3 C-4.68527344 2.1646875 -4.68527344 2.1646875 -3.7265625 1.3125 C-2 0 -2 0 0 0 Z " fill="#DFDFDF" transform="translate(126,952)"/>
<path d="M0 0 C0.33 0 0.66 0 1 0 C0.67 2.97 0.34 5.94 0 9 C-0.99 9.33 -1.98 9.66 -3 10 C-2.01 6.7 -1.02 3.4 0 0 Z " fill="#C3C3C4" transform="translate(920,620)"/>
<path d="M0 0 C1.60080151 4.00200378 0.29279692 7.04556236 -1 11 C-1.33 11 -1.66 11 -2 11 C-2 7.7 -2 4.4 -2 1 C-1.34 0.67 -0.68 0.34 0 0 Z " fill="#0D0D0D" transform="translate(937,536)"/>
<path d="M0 0 C0.66 0 1.32 0 2 0 C1.3125 2.375 1.3125 2.375 0 5 C-2.625 6.3125 -2.625 6.3125 -5 7 C-4.21654285 5.82780457 -3.42297164 4.66236332 -2.625 3.5 C-2.18414062 2.8503125 -1.74328125 2.200625 -1.2890625 1.53125 C-0.65097656 0.77328125 -0.65097656 0.77328125 0 0 Z " fill="#DEDDDE" transform="translate(355,298)"/>
</svg>
