<svg version="1.1" id="Layer_1" xmlns="http://www.w3.org/2000/svg" xmlns:xlink="http://www.w3.org/1999/xlink" x="0px" y="0px"
	 width="100%" viewBox="0 0 1254 1254" enable-background="new 0 0 1254 1254" xml:space="preserve">
<path fill="#151515" opacity="1.000000" stroke="none" 
	d="
M1.000004,1007.000000 
	C1.000000,754.638611 1.000000,502.277252 1.382011,249.359070 
	C2.173077,247.795853 2.803406,246.821579 2.954853,245.777817 
	C3.857718,239.555191 4.426092,233.276932 5.520037,227.090439 
	C9.299444,205.717056 16.052153,185.289795 24.631962,165.346970 
	C34.694260,141.958252 48.309601,120.781876 63.903458,100.883629 
	C70.642769,92.284050 78.935295,84.901604 86.523216,76.967178 
	C99.475365,63.423573 114.695038,52.793625 130.390854,42.763863 
	C147.420090,31.882034 165.452148,22.973450 184.527664,16.407688 
	C203.686768,9.813159 223.218781,4.508219 243.570358,2.918226 
	C244.756287,2.825576 245.858719,1.664084 247.000000,1.000000 
	C501.028046,1.000000 755.056091,1.000000 1009.639404,1.382949 
	C1010.702820,2.140808 1011.167175,2.752933 1011.725342,2.855832 
	C1024.572266,5.224215 1037.522949,7.115752 1050.265991,9.944761 
	C1080.353149,16.624317 1107.742188,29.840347 1133.086426,46.956524 
	C1154.697021,61.551060 1174.272095,78.585411 1190.874023,99.058548 
	C1203.702271,114.878212 1215.166870,131.474396 1224.523926,149.464600 
	C1239.261841,177.799728 1249.426636,207.675552 1253.095459,239.575790 
	C1253.195435,240.445374 1254.341675,241.194611 1255.000000,242.000000 
	C1255.000000,496.694702 1255.000000,751.389404 1254.617188,1006.639893 
	C1253.829834,1008.034424 1253.137329,1008.848511 1253.062988,1009.715515 
	C1251.297729,1030.312866 1246.651001,1050.240479 1239.992432,1069.804565 
	C1230.043701,1099.035522 1215.105225,1125.529419 1196.427856,1149.918213 
	C1181.521484,1169.383057 1163.961060,1186.161499 1144.092041,1200.708740 
	C1104.231079,1229.893433 1060.234375,1248.103760 1010.927551,1253.083008 
	C1009.897644,1253.186890 1008.973511,1254.337646 1008.000000,1255.000000 
	C754.971985,1255.000000 501.943939,1255.000000 248.360809,1254.616943 
	C246.800583,1253.825928 245.828323,1253.204834 244.785110,1253.043701 
	C236.940063,1251.833496 229.002487,1251.095093 221.240784,1249.496094 
	C195.568558,1244.206787 171.127991,1235.486572 147.895493,1223.206421 
	C125.566383,1211.404053 105.433449,1196.650513 87.037941,1179.482544 
	C73.898651,1167.220215 62.336147,1153.590820 52.053848,1138.783081 
	C40.530930,1122.188843 30.359028,1104.899414 22.688694,1086.218384 
	C13.517900,1063.883057 6.664069,1040.892700 3.849718,1016.797607 
	C3.460608,1013.466248 1.976949,1010.262695 1.000004,1007.000000 
M467.796844,273.347076 
	C443.400024,285.923553 420.816498,301.230682 399.879669,318.933167 
	C353.348877,358.275787 318.616425,406.336548 294.658478,462.256287 
	C273.989868,510.498535 263.332611,560.855042 263.479889,613.381348 
	C263.592438,653.524048 270.325897,692.581909 283.258026,730.600159 
	C301.750214,784.964050 330.774231,832.817810 371.213348,873.673462 
	C372.539459,875.013245 373.791199,876.426575 375.077637,877.805603 
	C374.911957,878.332153 374.746307,878.858643 374.580627,879.385193 
	C365.814606,879.385193 357.046234,879.258850 348.283142,879.420349 
	C339.344757,879.585083 332.348938,886.017212 331.265503,894.724792 
	C329.985962,905.008545 337.667053,913.602600 348.434662,913.528992 
	C371.923950,913.368408 395.411560,912.976318 418.900635,912.765503 
	C431.764374,912.650024 438.229462,906.012390 437.810883,893.154419 
	C437.089996,871.009399 436.409332,848.862976 435.660522,826.718933 
	C435.593475,824.736633 435.333099,822.721558 434.852142,820.799438 
	C432.906891,813.024719 425.211182,807.625122 417.200073,808.285156 
	C409.093109,808.953064 402.226929,815.925964 401.852112,824.073914 
	C401.706940,827.229309 401.995972,830.402466 402.010010,833.567871 
	C402.039825,840.307678 402.019104,847.047852 402.019104,854.929138 
	C376.368713,831.110229 355.801575,804.330566 339.645508,774.301086 
	C305.052673,710.003113 291.845520,641.416809 301.102814,568.939514 
	C319.052582,428.406738 417.397675,309.537537 561.629517,275.369568 
	C697.647766,243.147461 812.048279,295.092407 876.731323,361.033569 
	C875.827209,361.240112 875.036011,361.553772 874.234436,361.582947 
	C867.244202,361.837494 860.253479,362.139709 853.260315,362.236664 
	C842.826538,362.381348 835.453857,369.303162 835.430359,379.161591 
	C835.407532,388.757507 843.005737,396.140442 853.280518,395.981262 
	C875.102844,395.643219 896.924011,395.159729 918.740356,394.544495 
	C928.717834,394.263092 935.448242,387.131348 935.595520,377.110199 
	C935.636963,374.286621 935.304749,371.459137 935.195312,368.631470 
	C934.377014,347.490265 933.609558,326.346985 932.745300,305.207703 
	C932.347290,295.474060 924.621887,288.125153 915.241028,288.352356 
	C905.846252,288.579926 898.925232,295.732208 898.824951,305.559357 
	C898.773987,310.552917 899.125061,315.549377 899.211853,320.545929 
	C899.281250,324.542603 899.225952,328.541412 899.225952,333.717682 
	C840.439209,277.849365 772.351135,243.846893 693.153503,233.330124 
	C614.170898,222.841934 539.289612,236.750290 467.796844,273.347076 
M546.951416,380.558624 
	C435.641968,429.275635 373.679779,550.920593 401.260712,668.619141 
	C429.282349,788.198486 529.187012,855.266418 618.329102,863.105408 
	C619.266235,852.453613 620.203186,841.804199 621.136475,831.196167 
	C512.046387,815.918762 423.053192,718.741089 430.146271,599.980530 
	C433.316132,546.906311 452.783081,499.996521 490.157227,461.894714 
	C541.626404,409.423523 604.638367,388.691071 677.658264,398.229065 
	C679.937927,386.522247 682.140564,375.211212 684.370483,363.759735 
	C636.676392,356.136047 591.323547,361.305573 546.951416,380.558624 
M664.724060,831.269775 
	C664.174622,832.261536 663.104797,833.281189 663.156189,834.240845 
	C663.679443,844.018188 664.385315,853.785706 665.039673,863.549500 
	C756.756287,859.203247 867.676453,785.090820 888.672180,653.162903 
	C909.753540,520.696533 827.793091,409.876953 725.814880,374.823486 
	C722.461304,385.898651 719.113098,396.956238 715.770813,407.994171 
	C723.745056,411.687103 731.372986,414.959869 738.772461,418.686249 
	C820.361145,459.774261 867.893555,549.940186 855.761780,640.345642 
	C850.631531,678.575684 837.113342,713.570251 813.747131,744.222534 
	C776.340942,793.292786 727.893921,824.203430 664.724060,831.269775 
M658.224731,542.500122 
	C658.213196,520.009949 658.244751,497.519592 658.167847,475.029633 
	C658.139099,466.613800 653.638367,460.268250 646.294922,457.817505 
	C634.822083,453.988678 623.793701,462.299805 623.755737,475.112030 
	C623.659424,507.597473 623.746704,540.083435 623.746094,572.569214 
	C623.745850,588.062378 623.760620,603.555786 623.672974,619.048584 
	C623.634094,625.911743 626.141174,631.293579 632.006775,635.058411 
	C660.167053,653.133057 688.303345,671.245117 716.459839,689.325745 
	C725.677795,695.245117 735.760742,693.441467 741.372192,684.928467 
	C746.837219,676.637573 744.259766,665.918823 735.405273,660.157898 
	C710.706970,644.088623 686.035339,627.978027 661.260498,612.027466 
	C658.781555,610.431396 658.129944,608.724915 658.144531,605.972412 
	C658.254761,585.148743 658.216492,564.324341 658.224731,542.500122 
M757.092896,489.394592 
	C758.619263,490.931427 760.172791,492.442352 761.668091,494.008850 
	C799.257019,533.388611 815.098145,580.180786 809.287964,634.270508 
	C808.578430,640.875793 807.060730,647.390503 806.101379,653.973999 
	C805.568848,657.628601 805.067200,661.882690 809.244629,663.577026 
	C814.075439,665.536377 819.307312,666.506958 824.475342,667.937317 
	C824.861023,666.935059 825.155090,666.345703 825.318054,665.722046 
	C832.132568,639.645508 834.231140,613.279785 830.098694,586.544189 
	C821.957703,533.874023 796.969238,491.245483 754.372498,458.979340 
	C745.823853,452.503906 740.630676,450.360352 734.828552,463.534760 
	C732.855591,468.014465 733.414062,470.848145 737.370422,473.750916 
	C743.942505,478.572754 750.194702,483.830719 757.092896,489.394592 
M964.561096,499.981995 
	C972.694458,505.782623 982.795410,502.346069 983.750854,493.453247 
	C984.355225,487.827942 981.576660,482.884277 976.727905,480.957947 
	C972.029663,479.091370 966.683716,480.456543 963.687073,484.288208 
	C960.250549,488.682281 960.371704,494.076263 964.561096,499.981995 
M985.686279,738.907349 
	C986.061829,737.471375 986.663269,736.052612 986.774536,734.596436 
	C987.316162,727.505554 982.622375,722.258545 975.657227,722.012878 
	C969.433105,721.793396 964.449280,726.685364 964.366211,733.430237 
	C964.304932,738.399780 966.729797,742.029907 971.330139,744.007202 
	C976.388916,746.181580 981.017334,744.663818 985.686279,738.907349 
M489.702972,931.421509 
	C488.705811,924.955322 485.835785,921.185181 480.798462,920.190186 
	C476.029053,919.248108 471.812744,920.314148 468.986267,924.610107 
	C466.280823,928.722168 465.966003,933.147583 468.593536,937.319580 
	C471.083954,941.274048 474.982788,943.265991 479.684082,942.500610 
	C485.408569,941.568604 488.766052,937.987976 489.702972,931.421509 
M837.890747,918.769592 
	C836.086609,911.182556 830.063354,906.887207 824.016052,908.875244 
	C818.248901,910.771057 814.344299,916.597595 815.346436,921.811890 
	C816.419983,927.397888 821.679260,931.789307 826.982849,931.528259 
	C832.958557,931.234131 837.349243,926.445435 837.890747,918.769592 
M994.907471,684.602722 
	C1000.554077,680.755005 1002.593018,676.575806 1001.372192,671.351868 
	C1000.295532,666.744690 996.199402,662.987671 991.663269,662.570312 
	C986.885925,662.130859 983.213562,664.070068 980.820679,668.168640 
	C978.444885,672.237854 978.359009,676.449707 981.139832,680.359863 
	C984.366882,684.897461 988.731934,686.611389 994.907471,684.602722 
M910.624512,831.044312 
	C906.724609,834.339539 904.932800,838.430115 906.427551,843.462219 
	C907.726196,847.833801 910.896484,850.404053 915.319092,851.280457 
	C920.102173,852.228333 925.197632,849.631958 927.447815,845.289185 
	C929.742371,840.860840 929.081421,835.798889 925.759277,832.356567 
	C921.729126,828.180664 917.344788,827.657227 910.624512,831.044312 
M545.495911,956.888428 
	C546.003845,951.451416 544.535645,946.899841 539.209839,944.571716 
	C534.789062,942.639099 530.377197,942.919067 526.671509,946.331909 
	C523.016113,949.698364 522.070923,953.932922 523.657593,958.613159 
	C525.220337,963.223145 529.494080,966.212158 534.332581,966.097229 
	C540.006836,965.962524 543.603638,963.004028 545.495911,956.888428 
M990.054199,562.745972 
	C996.254089,560.795837 999.392395,557.397949 999.549561,552.126587 
	C999.697083,547.179626 997.475647,543.488953 993.044617,541.242249 
	C988.732910,539.056091 983.730286,539.867432 980.166016,543.372314 
	C976.712708,546.768005 976.110107,550.947571 977.640686,555.331787 
	C979.524902,560.729370 983.700073,562.947205 990.054199,562.745972 
M761.091858,944.979858 
	C760.413086,950.550903 762.437439,954.792969 767.450989,957.390381 
	C771.619080,959.549744 775.571960,958.623352 779.140381,955.928772 
	C783.008240,953.008179 784.335083,948.081116 782.734863,943.358948 
	C781.208679,938.855286 776.788025,935.546448 772.205261,935.477600 
	C767.576172,935.408081 763.612915,938.567261 761.091858,944.979858 
M604.554749,966.957397 
	C603.667297,961.617126 600.694702,958.094666 595.289856,957.231384 
	C590.387268,956.448303 586.452637,958.420288 583.869385,962.671265 
	C581.261414,966.962952 581.514160,971.293091 584.528687,975.277527 
	C587.528442,979.242676 591.578613,980.718384 596.442444,979.395630 
	C601.592224,977.995056 604.065369,974.403381 604.554749,966.957397 
M986.780884,604.262756 
	C981.132935,610.967346 982.099426,619.194946 988.958374,622.799744 
	C993.847839,625.369385 999.923401,624.063843 1003.260254,619.726562 
	C1006.445068,615.586914 1006.269714,609.556396 1002.845947,605.484375 
	C998.834229,600.713074 993.493164,600.116638 986.780884,604.262756 
M954.590698,778.489136 
	C949.550781,776.936890 945.380188,778.341064 942.216797,782.437561 
	C939.580261,785.851868 939.088379,789.724670 940.815735,793.714417 
	C942.872498,798.464783 947.513855,801.147766 952.402527,800.579590 
	C957.210327,800.020813 961.084229,796.303101 962.154724,791.220703 
	C963.242615,786.055664 961.017029,782.006104 954.590698,778.489136 
M722.240540,972.783203 
	C726.420105,967.048462 726.553223,962.010803 722.648254,957.353760 
	C719.237671,953.286316 713.828247,952.242676 709.141479,954.747803 
	C703.263184,957.889648 701.160522,965.004456 704.480652,970.518616 
	C708.205261,976.704651 714.869629,977.780640 722.240540,972.783203 
M652.846741,960.515930 
	C647.812988,961.088867 644.633789,964.060059 643.273376,968.701294 
	C641.963989,973.168091 643.164673,977.250366 646.684753,980.440918 
	C650.140747,983.573547 655.626404,983.984253 659.626282,981.520813 
	C664.002136,978.825806 665.965271,974.194824 664.884033,969.117554 
	C663.802917,964.040955 659.978271,961.114563 652.846741,960.515930 
M885.579468,887.617004 
	C887.116272,877.938965 881.122314,870.723816 873.157532,872.664368 
	C867.822144,873.964233 864.121765,878.400513 863.965088,883.685059 
	C863.804871,889.087891 867.003235,893.457031 872.105957,894.805969 
	C877.317627,896.183655 882.119690,893.831238 885.579468,887.617004 
z"/>
<path fill="#000000" opacity="1.000000" stroke="none" 
	d="
M1.000004,1007.468628 
	C1.976949,1010.262695 3.460608,1013.466248 3.849718,1016.797607 
	C6.664069,1040.892700 13.517900,1063.883057 22.688694,1086.218384 
	C30.359028,1104.899414 40.530930,1122.188843 52.053848,1138.783081 
	C62.336147,1153.590820 73.898651,1167.220215 87.037941,1179.482544 
	C105.433449,1196.650513 125.566383,1211.404053 147.895493,1223.206421 
	C171.127991,1235.486572 195.568558,1244.206787 221.240784,1249.496094 
	C229.002487,1251.095093 236.940063,1251.833496 244.785110,1253.043701 
	C245.828323,1253.204834 246.800583,1253.825928 247.902863,1254.616943 
	C165.739471,1255.000000 83.478958,1255.000000 1.000000,1255.000000 
	C1.000000,1172.645874 1.000000,1090.291626 1.000004,1007.468628 
z"/>
<path fill="#000000" opacity="1.000000" stroke="none" 
	d="
M246.531342,1.000000 
	C245.858719,1.664084 244.756287,2.825576 243.570358,2.918226 
	C223.218781,4.508219 203.686768,9.813159 184.527664,16.407688 
	C165.452148,22.973450 147.420090,31.882034 130.390854,42.763863 
	C114.695038,52.793625 99.475365,63.423573 86.523216,76.967178 
	C78.935295,84.901604 70.642769,92.284050 63.903458,100.883629 
	C48.309601,120.781876 34.694260,141.958252 24.631962,165.346970 
	C16.052153,185.289795 9.299444,205.717056 5.520037,227.090439 
	C4.426092,233.276932 3.857718,239.555191 2.954853,245.777817 
	C2.803406,246.821579 2.173077,247.795853 1.382011,248.901123 
	C1.000000,166.406586 1.000000,83.813179 1.000000,1.000000 
	C82.687431,1.000000 164.375061,1.000000 246.531342,1.000000 
z"/>
<path fill="#000000" opacity="1.000000" stroke="none" 
	d="
M1008.468689,1255.000000 
	C1008.973511,1254.337646 1009.897644,1253.186890 1010.927551,1253.083008 
	C1060.234375,1248.103760 1104.231079,1229.893433 1144.092041,1200.708740 
	C1163.961060,1186.161499 1181.521484,1169.383057 1196.427856,1149.918213 
	C1215.105225,1125.529419 1230.043701,1099.035522 1239.992432,1069.804565 
	C1246.651001,1050.240479 1251.297729,1030.312866 1253.062988,1009.715515 
	C1253.137329,1008.848511 1253.829834,1008.034424 1254.617188,1007.097839 
	C1255.000000,1089.593506 1255.000000,1172.187134 1255.000000,1255.000000 
	C1172.979248,1255.000000 1090.958252,1255.000000 1008.468689,1255.000000 
z"/>
<path fill="#000000" opacity="1.000000" stroke="none" 
	d="
M1255.000000,241.531342 
	C1254.341675,241.194611 1253.195435,240.445374 1253.095459,239.575790 
	C1249.426636,207.675552 1239.261841,177.799728 1224.523926,149.464600 
	C1215.166870,131.474396 1203.702271,114.878212 1190.874023,99.058548 
	C1174.272095,78.585411 1154.697021,61.551060 1133.086426,46.956524 
	C1107.742188,29.840347 1080.353149,16.624317 1050.265991,9.944761 
	C1037.522949,7.115752 1024.572266,5.224215 1011.725342,2.855832 
	C1011.167175,2.752933 1010.702820,2.140808 1010.097412,1.382949 
	C1091.593140,1.000000 1173.186157,1.000000 1255.000000,1.000000 
	C1255.000000,81.020760 1255.000000,161.041718 1255.000000,241.531342 
z"/>
<path fill="#5327D0" opacity="1.000000" stroke="none" 
	d="
M468.133118,273.194519 
	C539.289612,236.750290 614.170898,222.841934 693.153503,233.330124 
	C772.351135,243.846893 840.439209,277.849365 899.225952,333.717682 
	C899.225952,328.541412 899.281250,324.542603 899.211853,320.545929 
	C899.125061,315.549377 898.773987,310.552917 898.824951,305.559357 
	C898.925232,295.732208 905.846252,288.579926 915.241028,288.352356 
	C924.621887,288.125153 932.347290,295.474060 932.745300,305.207703 
	C933.609558,326.346985 934.377014,347.490265 935.195312,368.631470 
	C935.304749,371.459137 935.636963,374.286621 935.595520,377.110199 
	C935.448242,387.131348 928.717834,394.263092 918.740356,394.544495 
	C896.924011,395.159729 875.102844,395.643219 853.280518,395.981262 
	C843.005737,396.140442 835.407532,388.757507 835.430359,379.161591 
	C835.453857,369.303162 842.826538,362.381348 853.260315,362.236664 
	C860.253479,362.139709 867.244202,361.837494 874.234436,361.582947 
	C875.036011,361.553772 875.827209,361.240112 876.731323,361.033569 
	C812.048279,295.092407 697.647766,243.147461 561.629517,275.369568 
	C417.397675,309.537537 319.052582,428.406738 301.102814,568.939514 
	C291.845520,641.416809 305.052673,710.003113 339.645508,774.301086 
	C355.801575,804.330566 376.368713,831.110229 402.019104,854.929138 
	C402.019104,847.047852 402.039825,840.307678 402.010010,833.567871 
	C401.995972,830.402466 401.706940,827.229309 401.852112,824.073914 
	C402.226929,815.925964 409.093109,808.953064 417.200073,808.285156 
	C425.211182,807.625122 432.906891,813.024719 434.852142,820.799438 
	C435.333099,822.721558 435.593475,824.736633 435.660522,826.718933 
	C436.409332,848.862976 437.089996,871.009399 437.810883,893.154419 
	C438.229462,906.012390 431.764374,912.650024 418.900635,912.765503 
	C395.411560,912.976318 371.923950,913.368408 348.434662,913.528992 
	C337.667053,913.602600 329.985962,905.008545 331.265503,894.724792 
	C332.348938,886.017212 339.344757,879.585083 348.283142,879.420349 
	C357.046234,879.258850 365.814606,879.385193 374.580627,879.385193 
	C374.746307,878.858643 374.911957,878.332153 375.077637,877.805603 
	C373.791199,876.426575 372.539459,875.013245 371.213348,873.673462 
	C330.774231,832.817810 301.750214,784.964050 283.258026,730.600159 
	C270.325897,692.581909 263.592438,653.524048 263.479889,613.381348 
	C263.332611,560.855042 273.989868,510.498535 294.658478,462.256287 
	C318.616425,406.336548 353.348877,358.275787 399.879669,318.933167 
	C420.816498,301.230682 443.400024,285.923553 468.133118,273.194519 
z"/>
<path fill="#FBFBFB" opacity="1.000000" stroke="none" 
	d="
M547.293884,380.392944 
	C591.323547,361.305573 636.676392,356.136047 684.370483,363.759735 
	C682.140564,375.211212 679.937927,386.522247 677.658264,398.229065 
	C604.638367,388.691071 541.626404,409.423523 490.157227,461.894714 
	C452.783081,499.996521 433.316132,546.906311 430.146271,599.980530 
	C423.053192,718.741089 512.046387,815.918762 621.136475,831.196167 
	C620.203186,841.804199 619.266235,852.453613 618.329102,863.105408 
	C529.187012,855.266418 429.282349,788.198486 401.260712,668.619141 
	C373.679779,550.920593 435.641968,429.275635 547.293884,380.392944 
z"/>
<path fill="#FBFBFB" opacity="1.000000" stroke="none" 
	d="
M665.164551,831.243896 
	C727.893921,824.203430 776.340942,793.292786 813.747131,744.222534 
	C837.113342,713.570251 850.631531,678.575684 855.761780,640.345642 
	C867.893555,549.940186 820.361145,459.774261 738.772461,418.686249 
	C731.372986,414.959869 723.745056,411.687103 715.770813,407.994171 
	C719.113098,396.956238 722.461304,385.898651 725.814880,374.823486 
	C827.793091,409.876953 909.753540,520.696533 888.672180,653.162903 
	C867.676453,785.090820 756.756287,859.203247 665.039673,863.549500 
	C664.385315,853.785706 663.679443,844.018188 663.156189,834.240845 
	C663.104797,833.281189 664.174622,832.261536 665.164551,831.243896 
z"/>
<path fill="#FCFCFC" opacity="1.000000" stroke="none" 
	d="
M658.224670,543.000122 
	C658.216492,564.324341 658.254761,585.148743 658.144531,605.972412 
	C658.129944,608.724915 658.781555,610.431396 661.260498,612.027466 
	C686.035339,627.978027 710.706970,644.088623 735.405273,660.157898 
	C744.259766,665.918823 746.837219,676.637573 741.372192,684.928467 
	C735.760742,693.441467 725.677795,695.245117 716.459839,689.325745 
	C688.303345,671.245117 660.167053,653.133057 632.006775,635.058411 
	C626.141174,631.293579 623.634094,625.911743 623.672974,619.048584 
	C623.760620,603.555786 623.745850,588.062378 623.746094,572.569214 
	C623.746704,540.083435 623.659424,507.597473 623.755737,475.112030 
	C623.793701,462.299805 634.822083,453.988678 646.294922,457.817505 
	C653.638367,460.268250 658.139099,466.613800 658.167847,475.029633 
	C658.244751,497.519592 658.213196,520.009949 658.224670,543.000122 
z"/>
<path fill="#5428D0" opacity="1.000000" stroke="none" 
	d="
M756.837280,489.149780 
	C750.194702,483.830719 743.942505,478.572754 737.370422,473.750916 
	C733.414062,470.848145 732.855591,468.014465 734.828552,463.534760 
	C740.630676,450.360352 745.823853,452.503906 754.372498,458.979340 
	C796.969238,491.245483 821.957703,533.874023 830.098694,586.544189 
	C834.231140,613.279785 832.132568,639.645508 825.318054,665.722046 
	C825.155090,666.345703 824.861023,666.935059 824.475342,667.937317 
	C819.307312,666.506958 814.075439,665.536377 809.244629,663.577026 
	C805.067200,661.882690 805.568848,657.628601 806.101379,653.973999 
	C807.060730,647.390503 808.578430,640.875793 809.287964,634.270508 
	C815.098145,580.180786 799.257019,533.388611 761.668091,494.008850 
	C760.172791,492.442352 758.619263,490.931427 756.837280,489.149780 
z"/>
<path fill="#542BCB" opacity="1.000000" stroke="none" 
	d="
M964.294373,499.714539 
	C960.371704,494.076263 960.250549,488.682281 963.687073,484.288208 
	C966.683716,480.456543 972.029663,479.091370 976.727905,480.957947 
	C981.576660,482.884277 984.355225,487.827942 983.750854,493.453247 
	C982.795410,502.346069 972.694458,505.782623 964.294373,499.714539 
z"/>
<path fill="#542BCB" opacity="1.000000" stroke="none" 
	d="
M985.502441,739.244141 
	C981.017334,744.663818 976.388916,746.181580 971.330139,744.007202 
	C966.729797,742.029907 964.304932,738.399780 964.366211,733.430237 
	C964.449280,726.685364 969.433105,721.793396 975.657227,722.012878 
	C982.622375,722.258545 987.316162,727.505554 986.774536,734.596436 
	C986.663269,736.052612 986.061829,737.471375 985.502441,739.244141 
z"/>
<path fill="#562BD0" opacity="1.000000" stroke="none" 
	d="
M489.679382,931.809082 
	C488.766052,937.987976 485.408569,941.568604 479.684082,942.500610 
	C474.982788,943.265991 471.083954,941.274048 468.593536,937.319580 
	C465.966003,933.147583 466.280823,928.722168 468.986267,924.610107 
	C471.812744,920.314148 476.029053,919.248108 480.798462,920.190186 
	C485.835785,921.185181 488.705811,924.955322 489.679382,931.809082 
z"/>
<path fill="#552BCD" opacity="1.000000" stroke="none" 
	d="
M837.913025,919.176147 
	C837.349243,926.445435 832.958557,931.234131 826.982849,931.528259 
	C821.679260,931.789307 816.419983,927.397888 815.346436,921.811890 
	C814.344299,916.597595 818.248901,910.771057 824.016052,908.875244 
	C830.063354,906.887207 836.086609,911.182556 837.913025,919.176147 
z"/>
<path fill="#552BCD" opacity="1.000000" stroke="none" 
	d="
M994.557617,684.743042 
	C988.731934,686.611389 984.366882,684.897461 981.139832,680.359863 
	C978.359009,676.449707 978.444885,672.237854 980.820679,668.168640 
	C983.213562,664.070068 986.885925,662.130859 991.663269,662.570312 
	C996.199402,662.987671 1000.295532,666.744690 1001.372192,671.351868 
	C1002.593018,676.575806 1000.554077,680.755005 994.557617,684.743042 
z"/>
<path fill="#562BD0" opacity="1.000000" stroke="none" 
	d="
M910.930908,830.833679 
	C917.344788,827.657227 921.729126,828.180664 925.759277,832.356567 
	C929.081421,835.798889 929.742371,840.860840 927.447815,845.289185 
	C925.197632,849.631958 920.102173,852.228333 915.319092,851.280457 
	C910.896484,850.404053 907.726196,847.833801 906.427551,843.462219 
	C904.932800,838.430115 906.724609,834.339539 910.930908,830.833679 
z"/>
<path fill="#5328CC" opacity="1.000000" stroke="none" 
	d="
M545.383972,957.256958 
	C543.603638,963.004028 540.006836,965.962524 534.332581,966.097229 
	C529.494080,966.212158 525.220337,963.223145 523.657593,958.613159 
	C522.070923,953.932922 523.016113,949.698364 526.671509,946.331909 
	C530.377197,942.919067 534.789062,942.639099 539.209839,944.571716 
	C544.535645,946.899841 546.003845,951.451416 545.383972,957.256958 
z"/>
<path fill="#552BCD" opacity="1.000000" stroke="none" 
	d="
M989.657349,562.795166 
	C983.700073,562.947205 979.524902,560.729370 977.640686,555.331787 
	C976.110107,550.947571 976.712708,546.768005 980.166016,543.372314 
	C983.730286,539.867432 988.732910,539.056091 993.044617,541.242249 
	C997.475647,543.488953 999.697083,547.179626 999.549561,552.126587 
	C999.392395,557.397949 996.254089,560.795837 989.657349,562.795166 
z"/>
<path fill="#562BD0" opacity="1.000000" stroke="none" 
	d="
M761.184082,944.584595 
	C763.612915,938.567261 767.576172,935.408081 772.205261,935.477600 
	C776.788025,935.546448 781.208679,938.855286 782.734863,943.358948 
	C784.335083,948.081116 783.008240,953.008179 779.140381,955.928772 
	C775.571960,958.623352 771.619080,959.549744 767.450989,957.390381 
	C762.437439,954.792969 760.413086,950.550903 761.184082,944.584595 
z"/>
<path fill="#542BCB" opacity="1.000000" stroke="none" 
	d="
M604.609985,967.342834 
	C604.065369,974.403381 601.592224,977.995056 596.442444,979.395630 
	C591.578613,980.718384 587.528442,979.242676 584.528687,975.277527 
	C581.514160,971.293091 581.261414,966.962952 583.869385,962.671265 
	C586.452637,958.420288 590.387268,956.448303 595.289856,957.231384 
	C600.694702,958.094666 603.667297,961.617126 604.609985,967.342834 
z"/>
<path fill="#552BCD" opacity="1.000000" stroke="none" 
	d="
M987.056091,604.007324 
	C993.493164,600.116638 998.834229,600.713074 1002.845947,605.484375 
	C1006.269714,609.556396 1006.445068,615.586914 1003.260254,619.726562 
	C999.923401,624.063843 993.847839,625.369385 988.958374,622.799744 
	C982.099426,619.194946 981.132935,610.967346 987.056091,604.007324 
z"/>
<path fill="#562BD0" opacity="1.000000" stroke="none" 
	d="
M954.958618,778.642822 
	C961.017029,782.006104 963.242615,786.055664 962.154724,791.220703 
	C961.084229,796.303101 957.210327,800.020813 952.402527,800.579590 
	C947.513855,801.147766 942.872498,798.464783 940.815735,793.714417 
	C939.088379,789.724670 939.580261,785.851868 942.216797,782.437561 
	C945.380188,778.341064 949.550781,776.936890 954.958618,778.642822 
z"/>
<path fill="#552BCD" opacity="1.000000" stroke="none" 
	d="
M721.965088,973.040039 
	C714.869629,977.780640 708.205261,976.704651 704.480652,970.518616 
	C701.160522,965.004456 703.263184,957.889648 709.141479,954.747803 
	C713.828247,952.242676 719.237671,953.286316 722.648254,957.353760 
	C726.553223,962.010803 726.420105,967.048462 721.965088,973.040039 
z"/>
<path fill="#552BCD" opacity="1.000000" stroke="none" 
	d="
M653.230103,960.504883 
	C659.978271,961.114563 663.802917,964.040955 664.884033,969.117554 
	C665.965271,974.194824 664.002136,978.825806 659.626282,981.520813 
	C655.626404,983.984253 650.140747,983.573547 646.684753,980.440918 
	C643.164673,977.250366 641.963989,973.168091 643.273376,968.701294 
	C644.633789,964.060059 647.812988,961.088867 653.230103,960.504883 
z"/>
<path fill="#552BCD" opacity="1.000000" stroke="none" 
	d="
M885.422729,887.988037 
	C882.119690,893.831238 877.317627,896.183655 872.105957,894.805969 
	C867.003235,893.457031 863.804871,889.087891 863.965088,883.685059 
	C864.121765,878.400513 867.822144,873.964233 873.157532,872.664368 
	C881.122314,870.723816 887.116272,877.938965 885.422729,887.988037 
z"/>
</svg>